<svg xmlns="http://www.w3.org/2000/svg" xmlns:xlink="http://www.w3.org/1999/xlink" width="1500" zoomAndPan="magnify" viewBox="0 0 375 375.00002" height="1000" preserveAspectRatio="xMidYMid meet" version="1.0"><defs><g/><clipPath id="2b7c7c6826"><path d="M 205 164 L 374.5 164 L 374.5 374.003906 L 205 374.003906 Z M 205 164 " clip-rule="nonzero"/></clipPath><clipPath id="a32615c95d"><path d="M 18 81 L 96 81 L 96 210.003906 L 18 210.003906 Z M 18 81 " clip-rule="nonzero"/></clipPath><clipPath id="3bc6219a50"><path d="M 110 113 L 169.5 113 L 169.5 210.003906 L 110 210.003906 Z M 110 113 " clip-rule="nonzero"/></clipPath><clipPath id="ce8a59e9ad"><rect x="0" width="170" y="0" height="211"/></clipPath><clipPath id="9f0e0ebc3a"><path d="M 40 224 L 199 224 L 199 374.003906 L 40 374.003906 Z M 40 224 " clip-rule="nonzero"/></clipPath><clipPath id="3c42b3ce4a"><path d="M 7 7 L 37 7 L 37 37 L 7 37 Z M 7 7 " clip-rule="nonzero"/></clipPath><clipPath id="b8c43c9d25"><path d="M 21.660156 0.875 L 43.078125 21.503906 L 22.449219 42.921875 L 1.03125 22.292969 Z M 21.660156 0.875 " clip-rule="nonzero"/></clipPath><clipPath id="55cecdddb3"><path d="M 32.367188 11.191406 C 26.453125 5.492188 17.042969 5.671875 11.34375 11.585938 C 5.648438 17.5 5.824219 26.910156 11.738281 32.609375 C 17.652344 38.304688 27.066406 38.128906 32.761719 32.214844 C 38.460938 26.300781 38.28125 16.886719 32.367188 11.191406 Z M 32.367188 11.191406 " clip-rule="nonzero"/></clipPath><clipPath id="9197cdc51b"><path d="M 0 0 L 30 0 L 30 30 L 0 30 Z M 0 0 " clip-rule="nonzero"/></clipPath><clipPath id="d49529cd80"><path d="M 14.660156 -6.125 L 36.078125 14.503906 L 15.449219 35.921875 L -5.96875 15.292969 Z M 14.660156 -6.125 " clip-rule="nonzero"/></clipPath><clipPath id="63a4d94586"><path d="M 25.367188 4.191406 C 19.453125 -1.507812 10.042969 -1.328125 4.34375 4.585938 C -1.351562 10.5 -1.175781 19.910156 4.738281 25.609375 C 10.652344 31.304688 20.066406 31.128906 25.761719 25.214844 C 31.460938 19.300781 31.28125 9.886719 25.367188 4.191406 Z M 25.367188 4.191406 " clip-rule="nonzero"/></clipPath><clipPath id="6c2e8c265f"><rect x="0" width="30" y="0" height="30"/></clipPath><clipPath id="ff891b99e7"><path d="M 7 86 L 37 86 L 37 117 L 7 117 Z M 7 86 " clip-rule="nonzero"/></clipPath><clipPath id="f6bddc0d57"><path d="M 21.660156 80.800781 L 43.078125 101.429688 L 22.449219 122.847656 L 1.03125 102.21875 Z M 21.660156 80.800781 " clip-rule="nonzero"/></clipPath><clipPath id="9a4cea533e"><path d="M 32.367188 91.113281 C 26.453125 85.417969 17.042969 85.59375 11.34375 91.507812 C 5.648438 97.421875 5.824219 106.835938 11.738281 112.53125 C 17.652344 118.230469 27.066406 118.050781 32.761719 112.136719 C 38.460938 106.222656 38.28125 96.8125 32.367188 91.113281 Z M 32.367188 91.113281 " clip-rule="nonzero"/></clipPath><clipPath id="d4fdaf5837"><path d="M 0 0 L 30 0 L 30 31 L 0 31 Z M 0 0 " clip-rule="nonzero"/></clipPath><clipPath id="dddb48378e"><path d="M 14.660156 -5.199219 L 36.078125 15.429688 L 15.449219 36.847656 L -5.96875 16.21875 Z M 14.660156 -5.199219 " clip-rule="nonzero"/></clipPath><clipPath id="c6cdd5c98c"><path d="M 25.367188 5.113281 C 19.453125 -0.582031 10.042969 -0.40625 4.34375 5.507812 C -1.351562 11.421875 -1.175781 20.835938 4.738281 26.53125 C 10.652344 32.230469 20.066406 32.050781 25.761719 26.136719 C 31.460938 20.222656 31.28125 10.8125 25.367188 5.113281 Z M 25.367188 5.113281 " clip-rule="nonzero"/></clipPath><clipPath id="cfbd904d46"><rect x="0" width="30" y="0" height="31"/></clipPath><clipPath id="44e956b4a5"><path d="M 7 47 L 37 47 L 37 78 L 7 78 Z M 7 47 " clip-rule="nonzero"/></clipPath><clipPath id="223578ccc4"><path d="M 21.660156 41.320312 L 43.078125 61.949219 L 22.449219 83.367188 L 1.03125 62.738281 Z M 21.660156 41.320312 " clip-rule="nonzero"/></clipPath><clipPath id="b4b7d4f305"><path d="M 32.367188 51.636719 C 26.453125 45.9375 17.042969 46.117188 11.34375 52.03125 C 5.648438 57.945312 5.824219 67.355469 11.738281 73.054688 C 17.652344 78.75 27.066406 78.574219 32.761719 72.660156 C 38.460938 66.746094 38.28125 57.332031 32.367188 51.636719 Z M 32.367188 51.636719 " clip-rule="nonzero"/></clipPath><clipPath id="472a17ab8c"><path d="M 0 0 L 30 0 L 30 31 L 0 31 Z M 0 0 " clip-rule="nonzero"/></clipPath><clipPath id="81cf3984da"><path d="M 14.660156 -5.679688 L 36.078125 14.949219 L 15.449219 36.367188 L -5.96875 15.738281 Z M 14.660156 -5.679688 " clip-rule="nonzero"/></clipPath><clipPath id="6f8501bd6b"><path d="M 25.367188 4.636719 C 19.453125 -1.0625 10.042969 -0.882812 4.34375 5.03125 C -1.351562 10.945312 -1.175781 20.355469 4.738281 26.054688 C 10.652344 31.75 20.066406 31.574219 25.761719 25.660156 C 31.460938 19.746094 31.28125 10.332031 25.367188 4.636719 Z M 25.367188 4.636719 " clip-rule="nonzero"/></clipPath><clipPath id="ffe5575bfd"><rect x="0" width="30" y="0" height="31"/></clipPath><clipPath id="2eeebb87c3"><path d="M 7 127 L 37 127 L 37 150.003906 L 7 150.003906 Z M 7 127 " clip-rule="nonzero"/></clipPath><clipPath id="7151e6c61f"><path d="M 21.660156 121.246094 L 43.078125 141.875 L 22.449219 163.292969 L 1.03125 142.664062 Z M 21.660156 121.246094 " clip-rule="nonzero"/></clipPath><clipPath id="47099b2b7a"><path d="M 32.367188 131.558594 C 26.453125 125.863281 17.042969 126.039062 11.34375 131.953125 C 5.648438 137.867188 5.824219 147.28125 11.738281 152.976562 C 17.652344 158.675781 27.066406 158.496094 32.761719 152.582031 C 38.460938 146.667969 38.28125 137.257812 32.367188 131.558594 Z M 32.367188 131.558594 " clip-rule="nonzero"/></clipPath><clipPath id="9523999d06"><path d="M 0 0 L 30 0 L 30 23.003906 L 0 23.003906 Z M 0 0 " clip-rule="nonzero"/></clipPath><clipPath id="4c4908886f"><path d="M 14.660156 -5.753906 L 36.078125 14.875 L 15.449219 36.292969 L -5.96875 15.664062 Z M 14.660156 -5.753906 " clip-rule="nonzero"/></clipPath><clipPath id="aa415cbc78"><path d="M 25.367188 4.558594 C 19.453125 -1.136719 10.042969 -0.960938 4.34375 4.953125 C -1.351562 10.867188 -1.175781 20.28125 4.738281 25.976562 C 10.652344 31.675781 20.066406 31.496094 25.761719 25.582031 C 31.460938 19.667969 31.28125 10.257812 25.367188 4.558594 Z M 25.367188 4.558594 " clip-rule="nonzero"/></clipPath><clipPath id="be3453f114"><rect x="0" width="30" y="0" height="24"/></clipPath><clipPath id="ba7e47833d"><path d="M 64 126 L 95 126 L 95 150.003906 L 64 150.003906 Z M 64 126 " clip-rule="nonzero"/></clipPath><clipPath id="14980a4a15"><path d="M 79.128906 120.761719 L 100.546875 141.390625 L 79.917969 162.808594 L 58.5 142.179688 Z M 79.128906 120.761719 " clip-rule="nonzero"/></clipPath><clipPath id="0698b6bf3d"><path d="M 89.835938 131.078125 C 83.921875 125.378906 74.511719 125.554688 68.8125 131.46875 C 63.117188 137.382812 63.292969 146.796875 69.207031 152.492188 C 75.121094 158.191406 84.535156 158.015625 90.230469 152.101562 C 95.929688 146.1875 95.75 136.773438 89.835938 131.078125 Z M 89.835938 131.078125 " clip-rule="nonzero"/></clipPath><clipPath id="8733019808"><path d="M 0 0 L 31 0 L 31 24.003906 L 0 24.003906 Z M 0 0 " clip-rule="nonzero"/></clipPath><clipPath id="2e4e77ea2e"><path d="M 15.128906 -5.238281 L 36.546875 15.390625 L 15.917969 36.808594 L -5.5 16.179688 Z M 15.128906 -5.238281 " clip-rule="nonzero"/></clipPath><clipPath id="ad946f43f6"><path d="M 25.835938 5.078125 C 19.921875 -0.621094 10.511719 -0.445312 4.8125 5.46875 C -0.882812 11.382812 -0.707031 20.796875 5.207031 26.492188 C 11.121094 32.191406 20.535156 32.015625 26.230469 26.101562 C 31.929688 20.1875 31.75 10.773438 25.835938 5.078125 Z M 25.835938 5.078125 " clip-rule="nonzero"/></clipPath><clipPath id="84815103bb"><rect x="0" width="31" y="0" height="25"/></clipPath><clipPath id="45e0993bc6"><path d="M 64 46 L 95 46 L 95 77 L 64 77 Z M 64 46 " clip-rule="nonzero"/></clipPath><clipPath id="218d6e7c98"><path d="M 79.128906 40.835938 L 100.546875 61.46875 L 79.917969 82.886719 L 58.5 62.253906 Z M 79.128906 40.835938 " clip-rule="nonzero"/></clipPath><clipPath id="a718cf3093"><path d="M 89.835938 51.152344 C 83.921875 45.457031 74.511719 45.632812 68.8125 51.546875 C 63.117188 57.460938 63.292969 66.875 69.207031 72.570312 C 75.121094 78.265625 84.535156 78.089844 90.230469 72.175781 C 95.929688 66.261719 95.75 56.847656 89.835938 51.152344 Z M 89.835938 51.152344 " clip-rule="nonzero"/></clipPath><clipPath id="cbc9afd058"><path d="M 0 0 L 31 0 L 31 31 L 0 31 Z M 0 0 " clip-rule="nonzero"/></clipPath><clipPath id="d6f740a3ff"><path d="M 15.128906 -5.164062 L 36.546875 15.46875 L 15.917969 36.886719 L -5.5 16.253906 Z M 15.128906 -5.164062 " clip-rule="nonzero"/></clipPath><clipPath id="c7c2d1e23f"><path d="M 25.835938 5.152344 C 19.921875 -0.542969 10.511719 -0.367188 4.8125 5.546875 C -0.882812 11.460938 -0.707031 20.875 5.207031 26.570312 C 11.121094 32.265625 20.535156 32.089844 26.230469 26.175781 C 31.929688 20.261719 31.75 10.847656 25.835938 5.152344 Z M 25.835938 5.152344 " clip-rule="nonzero"/></clipPath><clipPath id="8edd831896"><rect x="0" width="31" y="0" height="31"/></clipPath><clipPath id="14279e2baf"><path d="M 64 87 L 95 87 L 95 118 L 64 118 Z M 64 87 " clip-rule="nonzero"/></clipPath><clipPath id="1e7d10bd46"><path d="M 79.128906 81.28125 L 100.546875 101.914062 L 79.917969 123.332031 L 58.5 102.699219 Z M 79.128906 81.28125 " clip-rule="nonzero"/></clipPath><clipPath id="fcebb9b6df"><path d="M 89.835938 91.597656 C 83.921875 85.902344 74.511719 86.078125 68.8125 91.992188 C 63.117188 97.90625 63.292969 107.320312 69.207031 113.015625 C 75.121094 118.710938 84.535156 118.535156 90.230469 112.621094 C 95.929688 106.707031 95.75 97.292969 89.835938 91.597656 Z M 89.835938 91.597656 " clip-rule="nonzero"/></clipPath><clipPath id="1e65f85996"><path d="M 0 0 L 31 0 L 31 31 L 0 31 Z M 0 0 " clip-rule="nonzero"/></clipPath><clipPath id="5c557941be"><path d="M 15.128906 -5.71875 L 36.546875 14.914062 L 15.917969 36.332031 L -5.5 15.699219 Z M 15.128906 -5.71875 " clip-rule="nonzero"/></clipPath><clipPath id="1fca71490b"><path d="M 25.835938 4.597656 C 19.921875 -1.097656 10.511719 -0.921875 4.8125 4.992188 C -0.882812 10.90625 -0.707031 20.320312 5.207031 26.015625 C 11.121094 31.710938 20.535156 31.535156 26.230469 25.621094 C 31.929688 19.707031 31.75 10.292969 25.835938 4.597656 Z M 25.835938 4.597656 " clip-rule="nonzero"/></clipPath><clipPath id="271a8d41db"><rect x="0" width="31" y="0" height="31"/></clipPath><clipPath id="4c045469a4"><path d="M 122 85 L 153 85 L 153 116 L 122 116 Z M 122 85 " clip-rule="nonzero"/></clipPath><clipPath id="09923904bc"><path d="M 137.195312 79.199219 L 158.613281 99.828125 L 137.984375 121.246094 L 116.566406 100.617188 Z M 137.195312 79.199219 " clip-rule="nonzero"/></clipPath><clipPath id="796ec9239a"><path d="M 147.902344 89.511719 C 141.988281 83.816406 132.578125 83.992188 126.878906 89.90625 C 121.183594 95.820312 121.359375 105.234375 127.273438 110.929688 C 133.1875 116.625 142.601562 116.449219 148.296875 110.535156 C 153.992188 104.621094 153.816406 95.210938 147.902344 89.511719 Z M 147.902344 89.511719 " clip-rule="nonzero"/></clipPath><clipPath id="44b0f9f2db"><path d="M 0 0 L 31 0 L 31 31 L 0 31 Z M 0 0 " clip-rule="nonzero"/></clipPath><clipPath id="3d4bfd4f73"><path d="M 15.195312 -5.800781 L 36.613281 14.828125 L 15.984375 36.246094 L -5.433594 15.617188 Z M 15.195312 -5.800781 " clip-rule="nonzero"/></clipPath><clipPath id="3ad720f710"><path d="M 25.902344 4.511719 C 19.988281 -1.183594 10.578125 -1.007812 4.878906 4.90625 C -0.816406 10.820312 -0.640625 20.234375 5.273438 25.929688 C 11.1875 31.625 20.601562 31.449219 26.296875 25.535156 C 31.992188 19.621094 31.816406 10.210938 25.902344 4.511719 Z M 25.902344 4.511719 " clip-rule="nonzero"/></clipPath><clipPath id="c396b63c6c"><rect x="0" width="31" y="0" height="31"/></clipPath><clipPath id="4bc1881908"><path d="M 40 114 L 58 114 L 58 132 L 40 132 Z M 40 114 " clip-rule="nonzero"/></clipPath><clipPath id="61fd93b50d"><path d="M 48.820312 110.351562 L 61.550781 122.613281 L 49.289062 135.339844 L 36.5625 123.082031 Z M 48.820312 110.351562 " clip-rule="nonzero"/></clipPath><clipPath id="1e2533c231"><path d="M 55.183594 116.484375 C 51.671875 113.097656 46.078125 113.203125 42.691406 116.71875 C 39.304688 120.230469 39.410156 125.824219 42.925781 129.210938 C 46.441406 132.597656 52.035156 132.492188 55.417969 128.976562 C 58.804688 125.460938 58.699219 119.867188 55.183594 116.484375 Z M 55.183594 116.484375 " clip-rule="nonzero"/></clipPath><clipPath id="ecaaf5e7e9"><path d="M 0 0 L 18 0 L 18 18 L 0 18 Z M 0 0 " clip-rule="nonzero"/></clipPath><clipPath id="ef87114597"><path d="M 8.820312 -3.648438 L 21.550781 8.613281 L 9.289062 21.339844 L -3.4375 9.082031 Z M 8.820312 -3.648438 " clip-rule="nonzero"/></clipPath><clipPath id="bbcf4fcf4f"><path d="M 15.183594 2.484375 C 11.671875 -0.902344 6.078125 -0.796875 2.691406 2.71875 C -0.695312 6.230469 -0.589844 11.824219 2.925781 15.210938 C 6.441406 18.597656 12.035156 18.492188 15.417969 14.976562 C 18.804688 11.460938 18.699219 5.867188 15.183594 2.484375 Z M 15.183594 2.484375 " clip-rule="nonzero"/></clipPath><clipPath id="8badb0d3bf"><rect x="0" width="18" y="0" height="18"/></clipPath><clipPath id="9f921c43b1"><path d="M 40 74 L 59 74 L 59 93 L 40 93 Z M 40 74 " clip-rule="nonzero"/></clipPath><clipPath id="d1e5f952a1"><path d="M 49.4375 70.875 L 62.164062 83.132812 L 49.90625 95.863281 L 37.175781 83.601562 Z M 49.4375 70.875 " clip-rule="nonzero"/></clipPath><clipPath id="7ec6b4c8ae"><path d="M 55.800781 77.003906 C 52.285156 73.617188 46.691406 73.722656 43.308594 77.238281 C 39.921875 80.753906 40.027344 86.347656 43.542969 89.730469 C 47.054688 93.117188 52.648438 93.011719 56.035156 89.5 C 59.421875 85.984375 59.316406 80.390625 55.800781 77.003906 Z M 55.800781 77.003906 " clip-rule="nonzero"/></clipPath><clipPath id="e454c8a367"><path d="M 0 0 L 19 0 L 19 19 L 0 19 Z M 0 0 " clip-rule="nonzero"/></clipPath><clipPath id="0c2e367b7f"><path d="M 9.4375 -3.125 L 22.164062 9.132812 L 9.90625 21.863281 L -2.824219 9.601562 Z M 9.4375 -3.125 " clip-rule="nonzero"/></clipPath><clipPath id="bbced0068c"><path d="M 15.800781 3.003906 C 12.285156 -0.382812 6.691406 -0.277344 3.308594 3.238281 C -0.078125 6.753906 0.0273438 12.347656 3.542969 15.730469 C 7.054688 19.117188 12.648438 19.011719 16.035156 15.5 C 19.421875 11.984375 19.316406 6.390625 15.800781 3.003906 Z M 15.800781 3.003906 " clip-rule="nonzero"/></clipPath><clipPath id="9bd85977e8"><rect x="0" width="19" y="0" height="19"/></clipPath><clipPath id="72926451ea"><path d="M 40 35 L 59 35 L 59 53 L 40 53 Z M 40 35 " clip-rule="nonzero"/></clipPath><clipPath id="b8ee9d3626"><path d="M 49.4375 31.46875 L 62.164062 43.730469 L 49.90625 56.457031 L 37.175781 44.199219 Z M 49.4375 31.46875 " clip-rule="nonzero"/></clipPath><clipPath id="6ddca26f92"><path d="M 55.800781 37.601562 C 52.285156 34.214844 46.691406 34.320312 43.308594 37.835938 C 39.921875 41.347656 40.027344 46.941406 43.542969 50.328125 C 47.054688 53.714844 52.648438 53.609375 56.035156 50.09375 C 59.421875 46.578125 59.316406 40.984375 55.800781 37.601562 Z M 55.800781 37.601562 " clip-rule="nonzero"/></clipPath><clipPath id="9634ae91a0"><path d="M 0 0 L 19 0 L 19 18 L 0 18 Z M 0 0 " clip-rule="nonzero"/></clipPath><clipPath id="73d46ea54e"><path d="M 9.4375 -3.53125 L 22.164062 8.730469 L 9.90625 21.457031 L -2.824219 9.199219 Z M 9.4375 -3.53125 " clip-rule="nonzero"/></clipPath><clipPath id="761bbb493d"><path d="M 15.800781 2.601562 C 12.285156 -0.785156 6.691406 -0.679688 3.308594 2.835938 C -0.078125 6.347656 0.0273438 11.941406 3.542969 15.328125 C 7.054688 18.714844 12.648438 18.609375 16.035156 15.09375 C 19.421875 11.578125 19.316406 5.984375 15.800781 2.601562 Z M 15.800781 2.601562 " clip-rule="nonzero"/></clipPath><clipPath id="773a6d9ab2"><rect x="0" width="19" y="0" height="18"/></clipPath><clipPath id="6def48677a"><path d="M 99 112 L 118 112 L 118 131 L 99 131 Z M 99 112 " clip-rule="nonzero"/></clipPath><clipPath id="f222d75103"><path d="M 108 108.75 L 120.726562 121.011719 L 108.46875 133.738281 L 95.742188 121.480469 Z M 108 108.75 " clip-rule="nonzero"/></clipPath><clipPath id="eb21866229"><path d="M 114.363281 114.882812 C 110.847656 111.496094 105.257812 111.601562 101.871094 115.113281 C 98.484375 118.628906 98.589844 124.222656 102.105469 127.609375 C 105.621094 130.992188 111.214844 130.890625 114.597656 127.375 C 117.984375 123.859375 117.878906 118.265625 114.363281 114.882812 Z M 114.363281 114.882812 " clip-rule="nonzero"/></clipPath><clipPath id="8a3042037a"><path d="M 0 0 L 19 0 L 19 19 L 0 19 Z M 0 0 " clip-rule="nonzero"/></clipPath><clipPath id="766b0b4191"><path d="M 9 -3.25 L 21.726562 9.011719 L 9.46875 21.738281 L -3.257812 9.480469 Z M 9 -3.25 " clip-rule="nonzero"/></clipPath><clipPath id="d343e2e093"><path d="M 15.363281 2.882812 C 11.847656 -0.503906 6.257812 -0.398438 2.871094 3.113281 C -0.515625 6.628906 -0.410156 12.222656 3.105469 15.609375 C 6.621094 18.992188 12.214844 18.890625 15.597656 15.375 C 18.984375 11.859375 18.878906 6.265625 15.363281 2.882812 Z M 15.363281 2.882812 " clip-rule="nonzero"/></clipPath><clipPath id="7ab1364d35"><rect x="0" width="19" y="0" height="19"/></clipPath><clipPath id="aaaaa8fd66"><path d="M 99 74 L 118 74 L 118 93 L 99 93 Z M 99 74 " clip-rule="nonzero"/></clipPath><clipPath id="8e17fe86c8"><path d="M 108 70.875 L 120.726562 83.132812 L 108.46875 95.863281 L 95.742188 83.601562 Z M 108 70.875 " clip-rule="nonzero"/></clipPath><clipPath id="92e48b8811"><path d="M 114.363281 77.003906 C 110.847656 73.617188 105.257812 73.722656 101.871094 77.238281 C 98.484375 80.753906 98.589844 86.347656 102.105469 89.730469 C 105.621094 93.117188 111.214844 93.011719 114.597656 89.5 C 117.984375 85.984375 117.878906 80.390625 114.363281 77.003906 Z M 114.363281 77.003906 " clip-rule="nonzero"/></clipPath><clipPath id="7c5033bcb3"><path d="M 0 0 L 19 0 L 19 19 L 0 19 Z M 0 0 " clip-rule="nonzero"/></clipPath><clipPath id="cc1d742caa"><path d="M 9 -3.125 L 21.726562 9.132812 L 9.46875 21.863281 L -3.257812 9.601562 Z M 9 -3.125 " clip-rule="nonzero"/></clipPath><clipPath id="86a2fb9cc1"><path d="M 15.363281 3.003906 C 11.847656 -0.382812 6.257812 -0.277344 2.871094 3.238281 C -0.515625 6.753906 -0.410156 12.347656 3.105469 15.730469 C 6.621094 19.117188 12.214844 19.011719 15.597656 15.5 C 18.984375 11.984375 18.878906 6.390625 15.363281 3.003906 Z M 15.363281 3.003906 " clip-rule="nonzero"/></clipPath><clipPath id="b019e301ad"><rect x="0" width="19" y="0" height="19"/></clipPath><clipPath id="111d10cd31"><rect x="0" width="159" y="0" height="151"/></clipPath></defs><g clip-path="url(#2b7c7c6826)"><g transform="matrix(1, 0, 0, 1, 205, 164)"><g clip-path="url(#ce8a59e9ad)"><g clip-path="url(#a32615c95d)"><g fill="#000000" fill-opacity="1"><g transform="translate(1.093272, 241.22819)"><g><path d="M 38.59375 -17 L 94.625 -17 L 94.625 0 L 17.6875 0 L 17.6875 -160.09375 L 38.59375 -160.09375 Z M 38.59375 -17 "/></g></g></g></g><g clip-path="url(#3bc6219a50)"><g fill="#000000" fill-opacity="1"><g transform="translate(100.314848, 241.22819)"><g><path d="M 132.53125 -67.75 C 132.53125 -63.769531 132.300781 -59.5625 131.84375 -55.125 L 31.234375 -55.125 C 32.003906 -42.71875 36.253906 -33.03125 43.984375 -26.0625 C 51.710938 -19.101562 61.09375 -15.625 72.125 -15.625 C 81.15625 -15.625 88.691406 -17.726562 94.734375 -21.9375 C 100.785156 -26.144531 105.039062 -31.769531 107.5 -38.8125 L 130 -38.8125 C 126.632812 -26.71875 119.894531 -16.878906 109.78125 -9.296875 C 99.675781 -1.722656 87.125 2.0625 72.125 2.0625 C 60.175781 2.0625 49.492188 -0.613281 40.078125 -5.96875 C 30.660156 -11.332031 23.269531 -18.953125 17.90625 -28.828125 C 12.550781 -38.703125 9.875 -50.144531 9.875 -63.15625 C 9.875 -76.175781 12.476562 -87.585938 17.6875 -97.390625 C 22.894531 -107.191406 30.207031 -114.734375 39.625 -120.015625 C 49.039062 -125.296875 59.875 -127.9375 72.125 -127.9375 C 84.0625 -127.9375 94.625 -125.332031 103.8125 -120.125 C 113 -114.914062 120.082031 -107.753906 125.0625 -98.640625 C 130.039062 -89.535156 132.53125 -79.238281 132.53125 -67.75 Z M 110.9375 -72.125 C 110.9375 -80.082031 109.175781 -86.929688 105.65625 -92.671875 C 102.132812 -98.421875 97.347656 -102.785156 91.296875 -105.765625 C 85.253906 -108.753906 78.554688 -110.25 71.203125 -110.25 C 60.640625 -110.25 51.644531 -106.878906 44.21875 -100.140625 C 36.789062 -93.398438 32.539062 -84.0625 31.46875 -72.125 Z M 110.9375 -72.125 "/></g></g></g></g></g></g></g><g clip-path="url(#9f0e0ebc3a)"><g transform="matrix(1, 0, 0, 1, 40, 224)"><g clip-path="url(#111d10cd31)"><g clip-path="url(#3c42b3ce4a)"><g clip-path="url(#b8c43c9d25)"><g clip-path="url(#55cecdddb3)"><g transform="matrix(1, 0, 0, 1, 7, 7)"><g clip-path="url(#6c2e8c265f)"><g clip-path="url(#9197cdc51b)"><g clip-path="url(#d49529cd80)"><g clip-path="url(#63a4d94586)"><path fill="#000000" d="M 14.660156 -6.125 L 36.078125 14.503906 L 15.449219 35.921875 L -5.96875 15.292969 Z M 14.660156 -6.125 " fill-opacity="1" fill-rule="nonzero"/></g></g></g></g></g></g></g></g><g clip-path="url(#ff891b99e7)"><g clip-path="url(#f6bddc0d57)"><g clip-path="url(#9a4cea533e)"><g transform="matrix(1, 0, 0, 1, 7, 86)"><g clip-path="url(#cfbd904d46)"><g clip-path="url(#d4fdaf5837)"><g clip-path="url(#dddb48378e)"><g clip-path="url(#c6cdd5c98c)"><path fill="#000000" d="M 14.660156 -5.199219 L 36.078125 15.429688 L 15.449219 36.847656 L -5.96875 16.21875 Z M 14.660156 -5.199219 " fill-opacity="1" fill-rule="nonzero"/></g></g></g></g></g></g></g></g><g clip-path="url(#44e956b4a5)"><g clip-path="url(#223578ccc4)"><g clip-path="url(#b4b7d4f305)"><g transform="matrix(1, 0, 0, 1, 7, 47)"><g clip-path="url(#ffe5575bfd)"><g clip-path="url(#472a17ab8c)"><g clip-path="url(#81cf3984da)"><g clip-path="url(#6f8501bd6b)"><path fill="#000000" d="M 14.660156 -5.679688 L 36.078125 14.949219 L 15.449219 36.367188 L -5.96875 15.738281 Z M 14.660156 -5.679688 " fill-opacity="1" fill-rule="nonzero"/></g></g></g></g></g></g></g></g><g clip-path="url(#2eeebb87c3)"><g clip-path="url(#7151e6c61f)"><g clip-path="url(#47099b2b7a)"><g transform="matrix(1, 0, 0, 1, 7, 127)"><g clip-path="url(#be3453f114)"><g clip-path="url(#9523999d06)"><g clip-path="url(#4c4908886f)"><g clip-path="url(#aa415cbc78)"><path fill="#000000" d="M 14.660156 -5.753906 L 36.078125 14.875 L 15.449219 36.292969 L -5.96875 15.664062 Z M 14.660156 -5.753906 " fill-opacity="1" fill-rule="nonzero"/></g></g></g></g></g></g></g></g><g clip-path="url(#ba7e47833d)"><g clip-path="url(#14980a4a15)"><g clip-path="url(#0698b6bf3d)"><g transform="matrix(1, 0, 0, 1, 64, 126)"><g clip-path="url(#84815103bb)"><g clip-path="url(#8733019808)"><g clip-path="url(#2e4e77ea2e)"><g clip-path="url(#ad946f43f6)"><path fill="#000000" d="M 15.128906 -5.238281 L 36.546875 15.390625 L 15.917969 36.808594 L -5.5 16.179688 Z M 15.128906 -5.238281 " fill-opacity="1" fill-rule="nonzero"/></g></g></g></g></g></g></g></g><g clip-path="url(#45e0993bc6)"><g clip-path="url(#218d6e7c98)"><g clip-path="url(#a718cf3093)"><g transform="matrix(1, 0, 0, 1, 64, 46)"><g clip-path="url(#8edd831896)"><g clip-path="url(#cbc9afd058)"><g clip-path="url(#d6f740a3ff)"><g clip-path="url(#c7c2d1e23f)"><path fill="#000000" d="M 15.128906 -5.164062 L 36.546875 15.46875 L 15.917969 36.886719 L -5.5 16.253906 Z M 15.128906 -5.164062 " fill-opacity="1" fill-rule="nonzero"/></g></g></g></g></g></g></g></g><g clip-path="url(#14279e2baf)"><g clip-path="url(#1e7d10bd46)"><g clip-path="url(#fcebb9b6df)"><g transform="matrix(1, 0, 0, 1, 64, 87)"><g clip-path="url(#271a8d41db)"><g clip-path="url(#1e65f85996)"><g clip-path="url(#5c557941be)"><g clip-path="url(#1fca71490b)"><path fill="#000000" d="M 15.128906 -5.71875 L 36.546875 14.914062 L 15.917969 36.332031 L -5.5 15.699219 Z M 15.128906 -5.71875 " fill-opacity="1" fill-rule="nonzero"/></g></g></g></g></g></g></g></g><g clip-path="url(#4c045469a4)"><g clip-path="url(#09923904bc)"><g clip-path="url(#796ec9239a)"><g transform="matrix(1, 0, 0, 1, 122, 85)"><g clip-path="url(#c396b63c6c)"><g clip-path="url(#44b0f9f2db)"><g clip-path="url(#3d4bfd4f73)"><g clip-path="url(#3ad720f710)"><path fill="#000000" d="M 15.195312 -5.800781 L 36.613281 14.828125 L 15.984375 36.246094 L -5.433594 15.617188 Z M 15.195312 -5.800781 " fill-opacity="1" fill-rule="nonzero"/></g></g></g></g></g></g></g></g><g clip-path="url(#4bc1881908)"><g clip-path="url(#61fd93b50d)"><g clip-path="url(#1e2533c231)"><g transform="matrix(1, 0, 0, 1, 40, 114)"><g clip-path="url(#8badb0d3bf)"><g clip-path="url(#ecaaf5e7e9)"><g clip-path="url(#ef87114597)"><g clip-path="url(#bbcf4fcf4f)"><path fill="#000000" d="M 8.820312 -3.648438 L 21.550781 8.613281 L 9.289062 21.339844 L -3.4375 9.082031 Z M 8.820312 -3.648438 " fill-opacity="1" fill-rule="nonzero"/></g></g></g></g></g></g></g></g><g clip-path="url(#9f921c43b1)"><g clip-path="url(#d1e5f952a1)"><g clip-path="url(#7ec6b4c8ae)"><g transform="matrix(1, 0, 0, 1, 40, 74)"><g clip-path="url(#9bd85977e8)"><g clip-path="url(#e454c8a367)"><g clip-path="url(#0c2e367b7f)"><g clip-path="url(#bbced0068c)"><path fill="#000000" d="M 9.4375 -3.125 L 22.164062 9.132812 L 9.90625 21.863281 L -2.824219 9.601562 Z M 9.4375 -3.125 " fill-opacity="1" fill-rule="nonzero"/></g></g></g></g></g></g></g></g><g clip-path="url(#72926451ea)"><g clip-path="url(#b8ee9d3626)"><g clip-path="url(#6ddca26f92)"><g transform="matrix(1, 0, 0, 1, 40, 35)"><g clip-path="url(#773a6d9ab2)"><g clip-path="url(#9634ae91a0)"><g clip-path="url(#73d46ea54e)"><g clip-path="url(#761bbb493d)"><path fill="#000000" d="M 9.4375 -3.53125 L 22.164062 8.730469 L 9.90625 21.457031 L -2.824219 9.199219 Z M 9.4375 -3.53125 " fill-opacity="1" fill-rule="nonzero"/></g></g></g></g></g></g></g></g><g clip-path="url(#6def48677a)"><g clip-path="url(#f222d75103)"><g clip-path="url(#eb21866229)"><g transform="matrix(1, 0, 0, 1, 99, 112)"><g clip-path="url(#7ab1364d35)"><g clip-path="url(#8a3042037a)"><g clip-path="url(#766b0b4191)"><g clip-path="url(#d343e2e093)"><path fill="#000000" d="M 9 -3.25 L 21.726562 9.011719 L 9.46875 21.738281 L -3.257812 9.480469 Z M 9 -3.25 " fill-opacity="1" fill-rule="nonzero"/></g></g></g></g></g></g></g></g><g clip-path="url(#aaaaa8fd66)"><g clip-path="url(#8e17fe86c8)"><g clip-path="url(#92e48b8811)"><g transform="matrix(1, 0, 0, 1, 99, 74)"><g clip-path="url(#b019e301ad)"><g clip-path="url(#7c5033bcb3)"><g clip-path="url(#cc1d742caa)"><g clip-path="url(#86a2fb9cc1)"><path fill="#000000" d="M 9 -3.125 L 21.726562 9.132812 L 9.46875 21.863281 L -3.257812 9.601562 Z M 9 -3.125 " fill-opacity="1" fill-rule="nonzero"/></g></g></g></g></g></g></g></g></g></g></g></svg>