<svg xmlns="http://www.w3.org/2000/svg" xmlns:xlink="http://www.w3.org/1999/xlink" width="1500" zoomAndPan="magnify" viewBox="15 208 1095 365" height="1000" preserveAspectRatio="xMidYMid meet" version="1.0"><defs><g/><clipPath id="008fd9ae0e"><rect x="0" width="889" y="0" height="324"/></clipPath><clipPath id="15d644d774"><path d="M 6 166 L 37 166 L 37 197 L 6 197 Z M 6 166 " clip-rule="nonzero"/></clipPath><clipPath id="0447041e17"><path d="M 21.324219 160.75 L 42.800781 181.433594 L 22.113281 202.910156 L 0.640625 182.222656 Z M 21.324219 160.75 " clip-rule="nonzero"/></clipPath><clipPath id="364b0ec92b"><path d="M 32.0625 171.089844 C 26.132812 165.378906 16.695312 165.554688 10.980469 171.488281 C 5.269531 177.417969 5.445312 186.855469 11.375 192.566406 C 17.308594 198.277344 26.746094 198.101562 32.457031 192.171875 C 38.167969 186.242188 37.992188 176.804688 32.0625 171.089844 Z M 32.0625 171.089844 " clip-rule="nonzero"/></clipPath><clipPath id="0fb0778d8e"><path d="M 0 0 L 31 0 L 31 31 L 0 31 Z M 0 0 " clip-rule="nonzero"/></clipPath><clipPath id="b73dd7458e"><path d="M 15.324219 -5.25 L 36.800781 15.433594 L 16.113281 36.910156 L -5.359375 16.222656 Z M 15.324219 -5.25 " clip-rule="nonzero"/></clipPath><clipPath id="d82c80b4de"><path d="M 26.0625 5.089844 C 20.132812 -0.621094 10.695312 -0.445312 4.980469 5.488281 C -0.730469 11.417969 -0.554688 20.855469 5.375 26.566406 C 11.308594 32.277344 20.746094 32.101562 26.457031 26.171875 C 32.167969 20.242188 31.992188 10.804688 26.0625 5.089844 Z M 26.0625 5.089844 " clip-rule="nonzero"/></clipPath><clipPath id="c387371302"><rect x="0" width="31" y="0" height="31"/></clipPath><clipPath id="aff1133a3c"><path d="M 6 6 L 37 6 L 37 37 L 6 37 Z M 6 6 " clip-rule="nonzero"/></clipPath><clipPath id="e7baf362cb"><path d="M 21.324219 0.476562 L 42.800781 21.160156 L 22.113281 42.636719 L 0.640625 21.949219 Z M 21.324219 0.476562 " clip-rule="nonzero"/></clipPath><clipPath id="3ce060b765"><path d="M 32.0625 10.816406 C 26.132812 5.105469 16.695312 5.28125 10.980469 11.210938 C 5.269531 17.144531 5.445312 26.582031 11.375 32.292969 C 17.308594 38.003906 26.746094 37.828125 32.457031 31.898438 C 38.167969 25.96875 37.992188 16.53125 32.0625 10.816406 Z M 32.0625 10.816406 " clip-rule="nonzero"/></clipPath><clipPath id="1e5a499c12"><path d="M 0 0 L 31 0 L 31 31 L 0 31 Z M 0 0 " clip-rule="nonzero"/></clipPath><clipPath id="d5fa7abf0e"><path d="M 15.324219 -5.523438 L 36.800781 15.160156 L 16.113281 36.636719 L -5.359375 15.949219 Z M 15.324219 -5.523438 " clip-rule="nonzero"/></clipPath><clipPath id="f80e61a55f"><path d="M 26.0625 4.816406 C 20.132812 -0.894531 10.695312 -0.71875 4.980469 5.210938 C -0.730469 11.144531 -0.554688 20.582031 5.375 26.292969 C 11.308594 32.003906 20.746094 31.828125 26.457031 25.898438 C 32.167969 19.96875 31.992188 10.53125 26.0625 4.816406 Z M 26.0625 4.816406 " clip-rule="nonzero"/></clipPath><clipPath id="9d5311096f"><rect x="0" width="31" y="0" height="31"/></clipPath><clipPath id="4bae727c18"><path d="M 6 86 L 37 86 L 37 117 L 6 117 Z M 6 86 " clip-rule="nonzero"/></clipPath><clipPath id="d1c6912b4c"><path d="M 21.324219 80.613281 L 42.800781 101.296875 L 22.113281 122.773438 L 0.640625 102.085938 Z M 21.324219 80.613281 " clip-rule="nonzero"/></clipPath><clipPath id="a9db917360"><path d="M 32.0625 90.953125 C 26.132812 85.242188 16.695312 85.417969 10.980469 91.351562 C 5.269531 97.28125 5.445312 106.71875 11.375 112.429688 C 17.308594 118.140625 26.746094 117.964844 32.457031 112.035156 C 38.167969 106.105469 37.992188 96.667969 32.0625 90.953125 Z M 32.0625 90.953125 " clip-rule="nonzero"/></clipPath><clipPath id="f5d6213c75"><path d="M 0 0 L 31 0 L 31 31 L 0 31 Z M 0 0 " clip-rule="nonzero"/></clipPath><clipPath id="32aaa4d9a7"><path d="M 15.324219 -5.386719 L 36.800781 15.296875 L 16.113281 36.773438 L -5.359375 16.085938 Z M 15.324219 -5.386719 " clip-rule="nonzero"/></clipPath><clipPath id="ad8984a049"><path d="M 26.0625 4.953125 C 20.132812 -0.757812 10.695312 -0.582031 4.980469 5.351562 C -0.730469 11.28125 -0.554688 20.71875 5.375 26.429688 C 11.308594 32.140625 20.746094 31.964844 26.457031 26.035156 C 32.167969 20.105469 31.992188 10.667969 26.0625 4.953125 Z M 26.0625 4.953125 " clip-rule="nonzero"/></clipPath><clipPath id="21d8ce5adc"><rect x="0" width="31" y="0" height="31"/></clipPath><clipPath id="faae64e972"><path d="M 6 47 L 37 47 L 37 78 L 6 78 Z M 6 47 " clip-rule="nonzero"/></clipPath><clipPath id="7e5940300f"><path d="M 21.324219 41.027344 L 42.800781 61.714844 L 22.113281 83.1875 L 0.640625 62.503906 Z M 21.324219 41.027344 " clip-rule="nonzero"/></clipPath><clipPath id="457975865b"><path d="M 32.0625 51.371094 C 26.132812 45.660156 16.695312 45.835938 10.980469 51.765625 C 5.269531 57.695312 5.445312 67.132812 11.375 72.847656 C 17.308594 78.558594 26.746094 78.382812 32.457031 72.449219 C 38.167969 66.519531 37.992188 57.082031 32.0625 51.371094 Z M 32.0625 51.371094 " clip-rule="nonzero"/></clipPath><clipPath id="6132f4509c"><path d="M 0 0 L 31 0 L 31 31 L 0 31 Z M 0 0 " clip-rule="nonzero"/></clipPath><clipPath id="803f290cac"><path d="M 15.324219 -5.972656 L 36.800781 14.714844 L 16.113281 36.1875 L -5.359375 15.503906 Z M 15.324219 -5.972656 " clip-rule="nonzero"/></clipPath><clipPath id="2a48d57e4c"><path d="M 26.0625 4.371094 C 20.132812 -1.339844 10.695312 -1.164062 4.980469 4.765625 C -0.730469 10.695312 -0.554688 20.132812 5.375 25.847656 C 11.308594 31.558594 20.746094 31.382812 26.457031 25.449219 C 32.167969 19.519531 31.992188 10.082031 26.0625 4.371094 Z M 26.0625 4.371094 " clip-rule="nonzero"/></clipPath><clipPath id="8f31c8843d"><rect x="0" width="31" y="0" height="31"/></clipPath><clipPath id="3da89f300b"><path d="M 6 127 L 37 127 L 37 158 L 6 158 Z M 6 127 " clip-rule="nonzero"/></clipPath><clipPath id="abf62c5b0c"><path d="M 21.324219 121.164062 L 42.800781 141.851562 L 22.113281 163.324219 L 0.640625 142.640625 Z M 21.324219 121.164062 " clip-rule="nonzero"/></clipPath><clipPath id="1c1c8cef38"><path d="M 32.0625 131.507812 C 26.132812 125.796875 16.695312 125.972656 10.980469 131.902344 C 5.269531 137.832031 5.445312 147.269531 11.375 152.984375 C 17.308594 158.695312 26.746094 158.519531 32.457031 152.585938 C 38.167969 146.65625 37.992188 137.21875 32.0625 131.507812 Z M 32.0625 131.507812 " clip-rule="nonzero"/></clipPath><clipPath id="0cd7df8b26"><path d="M 0 0 L 31 0 L 31 31 L 0 31 Z M 0 0 " clip-rule="nonzero"/></clipPath><clipPath id="fdd3bdbd02"><path d="M 15.324219 -5.835938 L 36.800781 14.851562 L 16.113281 36.324219 L -5.359375 15.640625 Z M 15.324219 -5.835938 " clip-rule="nonzero"/></clipPath><clipPath id="9c41098acd"><path d="M 26.0625 4.507812 C 20.132812 -1.203125 10.695312 -1.027344 4.980469 4.902344 C -0.730469 10.832031 -0.554688 20.269531 5.375 25.984375 C 11.308594 31.695312 20.746094 31.519531 26.457031 25.585938 C 32.167969 19.65625 31.992188 10.21875 26.0625 4.507812 Z M 26.0625 4.507812 " clip-rule="nonzero"/></clipPath><clipPath id="2a92ed6c4c"><rect x="0" width="31" y="0" height="31"/></clipPath><clipPath id="9f335bf451"><path d="M 39 151 L 58 151 L 58 170 L 39 170 Z M 39 151 " clip-rule="nonzero"/></clipPath><clipPath id="5c4ff8d585"><path d="M 48.558594 148.222656 L 61.320312 160.515625 L 49.027344 173.277344 L 36.265625 160.984375 Z M 48.558594 148.222656 " clip-rule="nonzero"/></clipPath><clipPath id="188bc4c91d"><path d="M 54.9375 154.367188 C 51.414062 150.972656 45.804688 151.078125 42.414062 154.601562 C 39.019531 158.128906 39.121094 163.734375 42.648438 167.128906 C 46.171875 170.523438 51.78125 170.417969 55.175781 166.894531 C 58.566406 163.371094 58.464844 157.761719 54.9375 154.367188 Z M 54.9375 154.367188 " clip-rule="nonzero"/></clipPath><clipPath id="6f34d58dbf"><path d="M 0 0 L 19 0 L 19 19 L 0 19 Z M 0 0 " clip-rule="nonzero"/></clipPath><clipPath id="147d64eeb2"><path d="M 9.558594 -2.777344 L 22.320312 9.515625 L 10.027344 22.277344 L -2.734375 9.984375 Z M 9.558594 -2.777344 " clip-rule="nonzero"/></clipPath><clipPath id="57dd44e681"><path d="M 15.9375 3.367188 C 12.414062 -0.0273438 6.804688 0.078125 3.414062 3.601562 C 0.0195312 7.128906 0.121094 12.734375 3.648438 16.128906 C 7.171875 19.523438 12.78125 19.417969 16.175781 15.894531 C 19.566406 12.371094 19.464844 6.761719 15.9375 3.367188 Z M 15.9375 3.367188 " clip-rule="nonzero"/></clipPath><clipPath id="8e1cdbc1ef"><rect x="0" width="19" y="0" height="19"/></clipPath><clipPath id="2522b5a0d1"><path d="M 64 126 L 95 126 L 95 157 L 64 157 Z M 64 126 " clip-rule="nonzero"/></clipPath><clipPath id="c04019d634"><path d="M 78.945312 120.679688 L 100.421875 141.367188 L 79.734375 162.839844 L 58.261719 142.15625 Z M 78.945312 120.679688 " clip-rule="nonzero"/></clipPath><clipPath id="877d671d25"><path d="M 89.683594 131.023438 C 83.753906 125.3125 74.316406 125.488281 68.605469 131.417969 C 62.890625 137.347656 63.070312 146.785156 69 152.496094 C 74.929688 158.210938 84.367188 158.03125 90.078125 152.101562 C 95.789062 146.171875 95.613281 136.734375 89.683594 131.023438 Z M 89.683594 131.023438 " clip-rule="nonzero"/></clipPath><clipPath id="adcc8f574e"><path d="M 0 0 L 31 0 L 31 31 L 0 31 Z M 0 0 " clip-rule="nonzero"/></clipPath><clipPath id="3ca7ee0d4e"><path d="M 14.945312 -5.320312 L 36.421875 15.367188 L 15.734375 36.839844 L -5.738281 16.15625 Z M 14.945312 -5.320312 " clip-rule="nonzero"/></clipPath><clipPath id="a29708b31f"><path d="M 25.683594 5.023438 C 19.753906 -0.6875 10.316406 -0.511719 4.605469 5.417969 C -1.109375 11.347656 -0.929688 20.785156 5 26.496094 C 10.929688 32.210938 20.367188 32.03125 26.078125 26.101562 C 31.789062 20.171875 31.613281 10.734375 25.683594 5.023438 Z M 25.683594 5.023438 " clip-rule="nonzero"/></clipPath><clipPath id="b80bd7c8e0"><rect x="0" width="31" y="0" height="31"/></clipPath><clipPath id="660f465b0f"><path d="M 64 46 L 95 46 L 95 77 L 64 77 Z M 64 46 " clip-rule="nonzero"/></clipPath><clipPath id="121b536ed4"><path d="M 78.945312 40.542969 L 100.421875 61.230469 L 79.734375 82.703125 L 58.261719 62.019531 Z M 78.945312 40.542969 " clip-rule="nonzero"/></clipPath><clipPath id="ec0282912c"><path d="M 89.683594 50.886719 C 83.753906 45.175781 74.316406 45.351562 68.605469 51.28125 C 62.890625 57.210938 63.070312 66.648438 69 72.359375 C 74.929688 78.074219 84.367188 77.894531 90.078125 71.964844 C 95.789062 66.035156 95.613281 56.597656 89.683594 50.886719 Z M 89.683594 50.886719 " clip-rule="nonzero"/></clipPath><clipPath id="9e6f2b7adb"><path d="M 0 0 L 31 0 L 31 31 L 0 31 Z M 0 0 " clip-rule="nonzero"/></clipPath><clipPath id="cd84115a61"><path d="M 14.945312 -5.457031 L 36.421875 15.230469 L 15.734375 36.703125 L -5.738281 16.019531 Z M 14.945312 -5.457031 " clip-rule="nonzero"/></clipPath><clipPath id="ce9db9bc4a"><path d="M 25.683594 4.886719 C 19.753906 -0.824219 10.316406 -0.648438 4.605469 5.28125 C -1.109375 11.210938 -0.929688 20.648438 5 26.359375 C 10.929688 32.074219 20.367188 31.894531 26.078125 25.964844 C 31.789062 20.035156 31.613281 10.597656 25.683594 4.886719 Z M 25.683594 4.886719 " clip-rule="nonzero"/></clipPath><clipPath id="5c0d7f7dad"><rect x="0" width="31" y="0" height="31"/></clipPath><clipPath id="24eda23032"><path d="M 64 87 L 95 87 L 95 118 L 64 118 Z M 64 87 " clip-rule="nonzero"/></clipPath><clipPath id="b37f2abc61"><path d="M 78.945312 81.097656 L 100.421875 101.78125 L 79.734375 123.257812 L 58.261719 102.570312 Z M 78.945312 81.097656 " clip-rule="nonzero"/></clipPath><clipPath id="40e15fe467"><path d="M 89.683594 91.441406 C 83.753906 85.726562 74.316406 85.90625 68.605469 91.835938 C 62.890625 97.765625 63.070312 107.203125 69 112.914062 C 74.929688 118.625 84.367188 118.449219 90.078125 112.519531 C 95.789062 106.589844 95.613281 97.152344 89.683594 91.441406 Z M 89.683594 91.441406 " clip-rule="nonzero"/></clipPath><clipPath id="366da50962"><path d="M 0 0 L 31 0 L 31 31 L 0 31 Z M 0 0 " clip-rule="nonzero"/></clipPath><clipPath id="6f55277159"><path d="M 14.945312 -5.902344 L 36.421875 14.78125 L 15.734375 36.257812 L -5.738281 15.570312 Z M 14.945312 -5.902344 " clip-rule="nonzero"/></clipPath><clipPath id="250104cf65"><path d="M 25.683594 4.441406 C 19.753906 -1.273438 10.316406 -1.09375 4.605469 4.835938 C -1.109375 10.765625 -0.929688 20.203125 5 25.914062 C 10.929688 31.625 20.367188 31.449219 26.078125 25.519531 C 31.789062 19.589844 31.613281 10.152344 25.683594 4.441406 Z M 25.683594 4.441406 " clip-rule="nonzero"/></clipPath><clipPath id="4408d78824"><rect x="0" width="31" y="0" height="31"/></clipPath><clipPath id="7217e033c2"><path d="M 122 85 L 153 85 L 153 115 L 122 115 Z M 122 85 " clip-rule="nonzero"/></clipPath><clipPath id="d270d08f8e"><path d="M 137.167969 79.007812 L 158.640625 99.691406 L 137.957031 121.164062 L 116.480469 100.480469 Z M 137.167969 79.007812 " clip-rule="nonzero"/></clipPath><clipPath id="6b00d10e61"><path d="M 147.90625 89.347656 C 141.972656 83.636719 132.535156 83.8125 126.824219 89.742188 C 121.113281 95.671875 121.289062 105.113281 127.21875 110.824219 C 133.148438 116.535156 142.585938 116.359375 148.300781 110.429688 C 154.011719 104.5 153.835938 95.058594 147.90625 89.347656 Z M 147.90625 89.347656 " clip-rule="nonzero"/></clipPath><clipPath id="4805897e53"><path d="M 0 0 L 31 0 L 31 30 L 0 30 Z M 0 0 " clip-rule="nonzero"/></clipPath><clipPath id="3fc1cf8f68"><path d="M 15.167969 -5.992188 L 36.640625 14.691406 L 15.957031 36.164062 L -5.519531 15.480469 Z M 15.167969 -5.992188 " clip-rule="nonzero"/></clipPath><clipPath id="6f47f027a0"><path d="M 25.90625 4.347656 C 19.972656 -1.363281 10.535156 -1.1875 4.824219 4.742188 C -0.886719 10.671875 -0.710938 20.113281 5.21875 25.824219 C 11.148438 31.535156 20.585938 31.359375 26.300781 25.429688 C 32.011719 19.5 31.835938 10.058594 25.90625 4.347656 Z M 25.90625 4.347656 " clip-rule="nonzero"/></clipPath><clipPath id="2897e8fc8e"><rect x="0" width="31" y="0" height="30"/></clipPath><clipPath id="7ab00e25ea"><path d="M 39 113 L 58 113 L 58 132 L 39 132 Z M 39 113 " clip-rule="nonzero"/></clipPath><clipPath id="a2b0415cfb"><path d="M 48.558594 110.246094 L 61.320312 122.535156 L 49.027344 135.296875 L 36.265625 123.007812 Z M 48.558594 110.246094 " clip-rule="nonzero"/></clipPath><clipPath id="1a0e513e4e"><path d="M 54.9375 116.390625 C 51.414062 112.996094 45.804688 113.101562 42.414062 116.625 C 39.019531 120.148438 39.121094 125.757812 42.648438 129.152344 C 46.171875 132.546875 51.78125 132.441406 55.175781 128.917969 C 58.566406 125.394531 58.464844 119.785156 54.9375 116.390625 Z M 54.9375 116.390625 " clip-rule="nonzero"/></clipPath><clipPath id="01dff11839"><path d="M 0 0 L 19 0 L 19 19 L 0 19 Z M 0 0 " clip-rule="nonzero"/></clipPath><clipPath id="f52ab7f299"><path d="M 9.558594 -2.753906 L 22.320312 9.535156 L 10.027344 22.296875 L -2.734375 10.007812 Z M 9.558594 -2.753906 " clip-rule="nonzero"/></clipPath><clipPath id="6c182402b2"><path d="M 15.9375 3.390625 C 12.414062 -0.00390625 6.804688 0.101562 3.414062 3.625 C 0.0195312 7.148438 0.121094 12.757812 3.648438 16.152344 C 7.171875 19.546875 12.78125 19.441406 16.175781 15.917969 C 19.566406 12.394531 19.464844 6.785156 15.9375 3.390625 Z M 15.9375 3.390625 " clip-rule="nonzero"/></clipPath><clipPath id="5804015630"><rect x="0" width="19" y="0" height="19"/></clipPath><clipPath id="09e50dd3a9"><path d="M 40 74 L 59 74 L 59 93 L 40 93 Z M 40 74 " clip-rule="nonzero"/></clipPath><clipPath id="5941ee166b"><path d="M 49.175781 70.660156 L 61.9375 82.953125 L 49.644531 95.714844 L 36.882812 83.421875 Z M 49.175781 70.660156 " clip-rule="nonzero"/></clipPath><clipPath id="3a8d55b3d2"><path d="M 55.554688 76.808594 C 52.03125 73.414062 46.421875 73.519531 43.027344 77.042969 C 39.632812 80.566406 39.738281 86.175781 43.265625 89.570312 C 46.789062 92.964844 52.394531 92.859375 55.789062 89.335938 C 59.183594 85.808594 59.082031 80.203125 55.554688 76.808594 Z M 55.554688 76.808594 " clip-rule="nonzero"/></clipPath><clipPath id="91c07d7101"><path d="M 0 0 L 19 0 L 19 19 L 0 19 Z M 0 0 " clip-rule="nonzero"/></clipPath><clipPath id="c822a47a14"><path d="M 9.175781 -3.339844 L 21.9375 8.953125 L 9.644531 21.714844 L -3.117188 9.421875 Z M 9.175781 -3.339844 " clip-rule="nonzero"/></clipPath><clipPath id="26ad76663b"><path d="M 15.554688 2.808594 C 12.03125 -0.585938 6.421875 -0.480469 3.027344 3.042969 C -0.367188 6.566406 -0.261719 12.175781 3.265625 15.570312 C 6.789062 18.964844 12.394531 18.859375 15.789062 15.335938 C 19.183594 11.808594 19.082031 6.203125 15.554688 2.808594 Z M 15.554688 2.808594 " clip-rule="nonzero"/></clipPath><clipPath id="9647c96065"><rect x="0" width="19" y="0" height="19"/></clipPath><clipPath id="c0d3bf64df"><path d="M 40 34 L 59 34 L 59 53 L 40 53 Z M 40 34 " clip-rule="nonzero"/></clipPath><clipPath id="4b398eac0e"><path d="M 49.175781 31.152344 L 61.9375 43.445312 L 49.644531 56.207031 L 36.882812 43.914062 Z M 49.175781 31.152344 " clip-rule="nonzero"/></clipPath><clipPath id="ba03cd3914"><path d="M 55.554688 37.296875 C 52.03125 33.902344 46.421875 34.007812 43.027344 37.53125 C 39.632812 41.058594 39.738281 46.664062 43.265625 50.058594 C 46.789062 53.453125 52.394531 53.347656 55.789062 49.824219 C 59.183594 46.300781 59.082031 40.691406 55.554688 37.296875 Z M 55.554688 37.296875 " clip-rule="nonzero"/></clipPath><clipPath id="d564580cde"><path d="M 0 0 L 19 0 L 19 19 L 0 19 Z M 0 0 " clip-rule="nonzero"/></clipPath><clipPath id="1c827c6c26"><path d="M 9.175781 -2.847656 L 21.9375 9.445312 L 9.644531 22.207031 L -3.117188 9.914062 Z M 9.175781 -2.847656 " clip-rule="nonzero"/></clipPath><clipPath id="5f7656faf4"><path d="M 15.554688 3.296875 C 12.03125 -0.0976562 6.421875 0.0078125 3.027344 3.53125 C -0.367188 7.058594 -0.261719 12.664062 3.265625 16.058594 C 6.789062 19.453125 12.394531 19.347656 15.789062 15.824219 C 19.183594 12.300781 19.082031 6.691406 15.554688 3.296875 Z M 15.554688 3.296875 " clip-rule="nonzero"/></clipPath><clipPath id="2b6f825e36"><rect x="0" width="19" y="0" height="19"/></clipPath><clipPath id="5064cf0c5a"><path d="M 99 112 L 117 112 L 117 131 L 99 131 Z M 99 112 " clip-rule="nonzero"/></clipPath><clipPath id="1f1d9efe0b"><path d="M 107.894531 108.636719 L 120.65625 120.929688 L 108.363281 133.691406 L 95.601562 121.398438 Z M 107.894531 108.636719 " clip-rule="nonzero"/></clipPath><clipPath id="7f4aacd3c1"><path d="M 114.277344 114.785156 C 110.75 111.390625 105.144531 111.496094 101.75 115.019531 C 98.355469 118.542969 98.460938 124.152344 101.984375 127.546875 C 105.507812 130.941406 111.117188 130.835938 114.511719 127.3125 C 117.90625 123.789062 117.800781 118.179688 114.277344 114.785156 Z M 114.277344 114.785156 " clip-rule="nonzero"/></clipPath><clipPath id="85aa0da65a"><path d="M 0 0 L 18 0 L 18 19 L 0 19 Z M 0 0 " clip-rule="nonzero"/></clipPath><clipPath id="e3e389b6c6"><path d="M 8.894531 -3.363281 L 21.65625 8.929688 L 9.363281 21.691406 L -3.398438 9.398438 Z M 8.894531 -3.363281 " clip-rule="nonzero"/></clipPath><clipPath id="530318b6e7"><path d="M 15.277344 2.785156 C 11.75 -0.609375 6.144531 -0.503906 2.75 3.019531 C -0.644531 6.542969 -0.539062 12.152344 2.984375 15.546875 C 6.507812 18.941406 12.117188 18.835938 15.511719 15.3125 C 18.90625 11.789062 18.800781 6.179688 15.277344 2.785156 Z M 15.277344 2.785156 " clip-rule="nonzero"/></clipPath><clipPath id="7d13c83813"><rect x="0" width="18" y="0" height="19"/></clipPath><clipPath id="dd04867853"><path d="M 99 74 L 117 74 L 117 93 L 99 93 Z M 99 74 " clip-rule="nonzero"/></clipPath><clipPath id="4b3a089699"><path d="M 107.894531 70.660156 L 120.65625 82.953125 L 108.363281 95.714844 L 95.601562 83.421875 Z M 107.894531 70.660156 " clip-rule="nonzero"/></clipPath><clipPath id="f7fb939f82"><path d="M 114.277344 76.808594 C 110.75 73.414062 105.144531 73.519531 101.75 77.042969 C 98.355469 80.566406 98.460938 86.175781 101.984375 89.570312 C 105.507812 92.964844 111.117188 92.859375 114.511719 89.335938 C 117.90625 85.808594 117.800781 80.203125 114.277344 76.808594 Z M 114.277344 76.808594 " clip-rule="nonzero"/></clipPath><clipPath id="e9392fa333"><path d="M 0 0 L 18 0 L 18 19 L 0 19 Z M 0 0 " clip-rule="nonzero"/></clipPath><clipPath id="c2d3367583"><path d="M 8.894531 -3.339844 L 21.65625 8.953125 L 9.363281 21.714844 L -3.398438 9.421875 Z M 8.894531 -3.339844 " clip-rule="nonzero"/></clipPath><clipPath id="6e81eab9fc"><path d="M 15.277344 2.808594 C 11.75 -0.585938 6.144531 -0.480469 2.75 3.042969 C -0.644531 6.566406 -0.539062 12.175781 2.984375 15.570312 C 6.507812 18.964844 12.117188 18.859375 15.511719 15.335938 C 18.90625 11.808594 18.800781 6.203125 15.277344 2.808594 Z M 15.277344 2.808594 " clip-rule="nonzero"/></clipPath><clipPath id="bf2400ae0b"><rect x="0" width="18" y="0" height="19"/></clipPath><clipPath id="19fcaf58ac"><rect x="0" width="159" y="0" height="203"/></clipPath></defs><rect x="-112.5" width="1350" fill="#ffffff" y="-74.999999" height="899.999994" fill-opacity="1"/><rect x="-112.5" width="1350" fill="#000000" y="-74.999999" height="899.999994" fill-opacity="1"/><g transform="matrix(1, 0, 0, 1, 205, 164)"><g clip-path="url(#008fd9ae0e)"><g fill="#ffffff" fill-opacity="1"><g transform="translate(1.142855, 242.308774)"><g><path d="M 38.6875 -17.046875 L 94.875 -17.046875 L 94.875 0 L 17.734375 0 L 17.734375 -160.515625 L 38.6875 -160.515625 Z M 38.6875 -17.046875 "/></g></g></g><g fill="#ffffff" fill-opacity="1"><g transform="translate(100.629017, 242.308774)"><g><path d="M 132.875 -67.9375 C 132.875 -63.945312 132.644531 -59.722656 132.1875 -55.265625 L 31.328125 -55.265625 C 32.085938 -42.835938 36.34375 -33.128906 44.09375 -26.140625 C 51.851562 -19.148438 61.257812 -15.65625 72.3125 -15.65625 C 81.375 -15.65625 88.9375 -17.765625 95 -21.984375 C 101.0625 -26.210938 105.320312 -31.859375 107.78125 -38.921875 L 130.34375 -38.921875 C 126.96875 -26.796875 120.210938 -16.929688 110.078125 -9.328125 C 99.941406 -1.722656 87.351562 2.078125 72.3125 2.078125 C 60.332031 2.078125 49.625 -0.609375 40.1875 -5.984375 C 30.75 -11.359375 23.34375 -18.992188 17.96875 -28.890625 C 12.59375 -38.796875 9.90625 -50.273438 9.90625 -63.328125 C 9.90625 -76.378906 12.515625 -87.816406 17.734375 -97.640625 C 22.953125 -107.472656 30.28125 -115.035156 39.71875 -120.328125 C 49.164062 -125.628906 60.03125 -128.28125 72.3125 -128.28125 C 84.289062 -128.28125 94.882812 -125.664062 104.09375 -120.4375 C 113.300781 -115.21875 120.398438 -108.039062 125.390625 -98.90625 C 130.378906 -89.769531 132.875 -79.445312 132.875 -67.9375 Z M 111.234375 -72.3125 C 111.234375 -80.289062 109.46875 -87.160156 105.9375 -92.921875 C 102.40625 -98.679688 97.609375 -103.054688 91.546875 -106.046875 C 85.484375 -109.046875 78.765625 -110.546875 71.390625 -110.546875 C 60.796875 -110.546875 51.773438 -107.164062 44.328125 -100.40625 C 36.878906 -93.65625 32.617188 -84.289062 31.546875 -72.3125 Z M 111.234375 -72.3125 "/></g></g></g><g fill="#ffffff" fill-opacity="1"><g transform="translate(243.410112, 242.308774)"><g><path d="M 9.90625 -63.5625 C 9.90625 -76.457031 12.515625 -87.78125 17.734375 -97.53125 C 22.953125 -107.28125 30.128906 -114.84375 39.265625 -120.21875 C 48.398438 -125.59375 58.570312 -128.28125 69.78125 -128.28125 C 80.832031 -128.28125 90.425781 -125.898438 98.5625 -121.140625 C 106.695312 -116.378906 112.765625 -110.390625 116.765625 -103.171875 L 116.765625 -126.203125 L 137.953125 -126.203125 L 137.953125 0 L 116.765625 0 L 116.765625 -23.484375 C 112.617188 -16.117188 106.4375 -10.015625 98.21875 -5.171875 C 90.007812 -0.335938 80.453125 2.078125 69.546875 2.078125 C 58.335938 2.078125 48.203125 -0.6875 39.140625 -6.21875 C 30.085938 -11.75 22.953125 -19.503906 17.734375 -29.484375 C 12.515625 -39.460938 9.90625 -50.820312 9.90625 -63.5625 Z M 116.765625 -63.328125 C 116.765625 -72.847656 114.84375 -81.140625 111 -88.203125 C 107.164062 -95.265625 101.984375 -100.675781 95.453125 -104.4375 C 88.929688 -108.195312 81.753906 -110.078125 73.921875 -110.078125 C 66.097656 -110.078125 58.957031 -108.234375 52.5 -104.546875 C 46.050781 -100.867188 40.910156 -95.5 37.078125 -88.4375 C 33.242188 -81.375 31.328125 -73.082031 31.328125 -63.5625 C 31.328125 -53.882812 33.242188 -45.476562 37.078125 -38.34375 C 40.910156 -31.207031 46.050781 -25.753906 52.5 -21.984375 C 58.957031 -18.222656 66.097656 -16.34375 73.921875 -16.34375 C 81.753906 -16.34375 88.929688 -18.222656 95.453125 -21.984375 C 101.984375 -25.753906 107.164062 -31.207031 111 -38.34375 C 114.84375 -45.476562 116.765625 -53.804688 116.765625 -63.328125 Z M 116.765625 -63.328125 "/></g></g></g><g fill="#ffffff" fill-opacity="1"><g transform="translate(399.087545, 242.308774)"><g><path d="M 79.21875 -128.5 C 94.570312 -128.5 107.007812 -123.851562 116.53125 -114.5625 C 126.050781 -105.28125 130.8125 -91.890625 130.8125 -74.390625 L 130.8125 0 L 110.078125 0 L 110.078125 -71.390625 C 110.078125 -83.984375 106.929688 -93.617188 100.640625 -100.296875 C 94.347656 -106.972656 85.75 -110.3125 74.84375 -110.3125 C 63.789062 -110.3125 55 -106.851562 48.46875 -99.9375 C 41.945312 -93.03125 38.6875 -82.976562 38.6875 -69.78125 L 38.6875 0 L 17.734375 0 L 17.734375 -126.203125 L 38.6875 -126.203125 L 38.6875 -108.234375 C 42.832031 -114.679688 48.472656 -119.671875 55.609375 -123.203125 C 62.753906 -126.734375 70.625 -128.5 79.21875 -128.5 Z M 79.21875 -128.5 "/></g></g></g><g fill="#ffffff" fill-opacity="1"><g transform="translate(546.474481, 242.308774)"><g><path d="M 180.546875 -159.359375 L 180.546875 0 L 159.59375 0 L 159.59375 -118.828125 L 106.625 0 L 91.890625 0 L 38.6875 -119.0625 L 38.6875 0 L 17.734375 0 L 17.734375 -159.359375 L 40.296875 -159.359375 L 99.265625 -27.640625 L 158.21875 -159.359375 Z M 180.546875 -159.359375 "/></g></g></g><g fill="#ffffff" fill-opacity="1"><g transform="translate(744.756007, 242.308774)"><g><path d="M 132.875 -67.9375 C 132.875 -63.945312 132.644531 -59.722656 132.1875 -55.265625 L 31.328125 -55.265625 C 32.085938 -42.835938 36.34375 -33.128906 44.09375 -26.140625 C 51.851562 -19.148438 61.257812 -15.65625 72.3125 -15.65625 C 81.375 -15.65625 88.9375 -17.765625 95 -21.984375 C 101.0625 -26.210938 105.320312 -31.859375 107.78125 -38.921875 L 130.34375 -38.921875 C 126.96875 -26.796875 120.210938 -16.929688 110.078125 -9.328125 C 99.941406 -1.722656 87.351562 2.078125 72.3125 2.078125 C 60.332031 2.078125 49.625 -0.609375 40.1875 -5.984375 C 30.75 -11.359375 23.34375 -18.992188 17.96875 -28.890625 C 12.59375 -38.796875 9.90625 -50.273438 9.90625 -63.328125 C 9.90625 -76.378906 12.515625 -87.816406 17.734375 -97.640625 C 22.953125 -107.472656 30.28125 -115.035156 39.71875 -120.328125 C 49.164062 -125.628906 60.03125 -128.28125 72.3125 -128.28125 C 84.289062 -128.28125 94.882812 -125.664062 104.09375 -120.4375 C 113.300781 -115.21875 120.398438 -108.039062 125.390625 -98.90625 C 130.378906 -89.769531 132.875 -79.445312 132.875 -67.9375 Z M 111.234375 -72.3125 C 111.234375 -80.289062 109.46875 -87.160156 105.9375 -92.921875 C 102.40625 -98.679688 97.609375 -103.054688 91.546875 -106.046875 C 85.484375 -109.046875 78.765625 -110.546875 71.390625 -110.546875 C 60.796875 -110.546875 51.773438 -107.164062 44.328125 -100.40625 C 36.878906 -93.65625 32.617188 -84.289062 31.546875 -72.3125 Z M 111.234375 -72.3125 "/></g></g></g></g></g><g fill="#bfbfbf" fill-opacity="1"><g transform="translate(220.118578, 499.319876)"><g><path d="M 52.625 -26.234375 C 52.625 -17.859375 50.503906 -11.269531 46.265625 -6.46875 C 42.023438 -1.675781 36.140625 0.71875 28.609375 0.71875 C 20.898438 0.71875 14.945312 -1.632812 10.75 -6.34375 C 6.5625 -11.0625 4.46875 -17.71875 4.46875 -26.3125 C 4.46875 -34.832031 6.566406 -41.4375 10.765625 -46.125 C 14.972656 -50.8125 20.941406 -53.15625 28.671875 -53.15625 C 36.191406 -53.15625 42.0625 -50.769531 46.28125 -46 C 50.507812 -41.226562 52.625 -34.640625 52.625 -26.234375 Z M 10.921875 -26.234375 C 10.921875 -19.148438 12.425781 -13.773438 15.4375 -10.109375 C 18.457031 -6.453125 22.847656 -4.625 28.609375 -4.625 C 34.398438 -4.625 38.773438 -6.445312 41.734375 -10.09375 C 44.691406 -13.75 46.171875 -19.128906 46.171875 -26.234375 C 46.171875 -33.273438 44.695312 -38.613281 41.75 -42.25 C 38.8125 -45.894531 34.453125 -47.71875 28.671875 -47.71875 C 22.867188 -47.71875 18.457031 -45.882812 15.4375 -42.21875 C 12.425781 -38.5625 10.921875 -33.234375 10.921875 -26.234375 Z M 10.921875 -26.234375 "/></g></g></g><g fill="#bfbfbf" fill-opacity="1"><g transform="translate(284.180266, 499.319876)"><g><path d="M 24.5625 0.71875 C 22 0.71875 19.660156 0.246094 17.546875 -0.6875 C 15.441406 -1.632812 13.675781 -3.085938 12.25 -5.046875 L 11.8125 -5.046875 C 12.101562 -2.753906 12.25 -0.582031 12.25 1.46875 L 12.25 17.609375 L 6.296875 17.609375 L 6.296875 -39.234375 L 11.140625 -39.234375 L 11.953125 -33.859375 L 12.25 -33.859375 C 13.769531 -36.003906 15.546875 -37.554688 17.578125 -38.515625 C 19.609375 -39.472656 21.9375 -39.953125 24.5625 -39.953125 C 29.757812 -39.953125 33.769531 -38.171875 36.59375 -34.609375 C 39.425781 -31.054688 40.84375 -26.070312 40.84375 -19.65625 C 40.84375 -13.207031 39.40625 -8.195312 36.53125 -4.625 C 33.65625 -1.0625 29.664062 0.71875 24.5625 0.71875 Z M 23.703125 -34.90625 C 19.691406 -34.90625 16.789062 -33.796875 15 -31.578125 C 13.207031 -29.359375 12.289062 -25.828125 12.25 -20.984375 L 12.25 -19.65625 C 12.25 -14.144531 13.164062 -10.203125 15 -7.828125 C 16.832031 -5.453125 19.78125 -4.265625 23.84375 -4.265625 C 27.226562 -4.265625 29.878906 -5.632812 31.796875 -8.375 C 33.722656 -11.125 34.6875 -14.90625 34.6875 -19.71875 C 34.6875 -24.613281 33.722656 -28.367188 31.796875 -30.984375 C 29.878906 -33.597656 27.179688 -34.90625 23.703125 -34.90625 Z M 23.703125 -34.90625 "/></g></g></g><g fill="#bfbfbf" fill-opacity="1"><g transform="translate(336.070934, 499.319876)"><g><path d="M 22.875 0.71875 C 17.070312 0.71875 12.492188 -1.046875 9.140625 -4.578125 C 5.785156 -8.109375 4.109375 -13.015625 4.109375 -19.296875 C 4.109375 -25.617188 5.664062 -30.640625 8.78125 -34.359375 C 11.894531 -38.085938 16.078125 -39.953125 21.328125 -39.953125 C 26.242188 -39.953125 30.132812 -38.332031 33 -35.09375 C 35.863281 -31.863281 37.296875 -27.597656 37.296875 -22.296875 L 37.296875 -18.546875 L 10.28125 -18.546875 C 10.394531 -13.941406 11.554688 -10.441406 13.765625 -8.046875 C 15.972656 -5.660156 19.082031 -4.46875 23.09375 -4.46875 C 27.3125 -4.46875 31.488281 -5.351562 35.625 -7.125 L 35.625 -1.828125 C 33.519531 -0.921875 31.53125 -0.269531 29.65625 0.125 C 27.78125 0.519531 25.519531 0.71875 22.875 0.71875 Z M 21.265625 -34.96875 C 18.109375 -34.96875 15.59375 -33.941406 13.71875 -31.890625 C 11.851562 -29.835938 10.753906 -27 10.421875 -23.375 L 30.921875 -23.375 C 30.921875 -27.125 30.085938 -29.992188 28.421875 -31.984375 C 26.753906 -33.972656 24.367188 -34.96875 21.265625 -34.96875 Z M 21.265625 -34.96875 "/></g></g></g><g fill="#bfbfbf" fill-opacity="1"><g transform="translate(384.167108, 499.319876)"><g><path d="M 33.140625 0 L 33.140625 -25.375 C 33.140625 -28.570312 32.410156 -30.957031 30.953125 -32.53125 C 29.503906 -34.113281 27.226562 -34.90625 24.125 -34.90625 C 20.019531 -34.90625 17.015625 -33.796875 15.109375 -31.578125 C 13.203125 -29.359375 12.25 -25.691406 12.25 -20.578125 L 12.25 0 L 6.296875 0 L 6.296875 -39.234375 L 11.140625 -39.234375 L 12.09375 -33.859375 L 12.390625 -33.859375 C 13.609375 -35.796875 15.3125 -37.296875 17.5 -38.359375 C 19.695312 -39.421875 22.144531 -39.953125 24.84375 -39.953125 C 29.570312 -39.953125 33.128906 -38.8125 35.515625 -36.53125 C 37.898438 -34.25 39.09375 -30.601562 39.09375 -25.59375 L 39.09375 0 Z M 33.140625 0 "/></g></g></g><g fill="#bfbfbf" fill-opacity="1"><g transform="translate(436.129371, 499.319876)"><g/></g></g><g fill="#bfbfbf" fill-opacity="1"><g transform="translate(462.138723, 499.319876)"><g><path d="M 7.1875 0 L 7.1875 -52.328125 L 13.28125 -52.328125 L 13.28125 0 Z M 7.1875 0 "/></g></g></g><g fill="#bfbfbf" fill-opacity="1"><g transform="translate(489.544162, 499.319876)"><g><path d="M 33.140625 0 L 33.140625 -25.375 C 33.140625 -28.570312 32.410156 -30.957031 30.953125 -32.53125 C 29.503906 -34.113281 27.226562 -34.90625 24.125 -34.90625 C 20.019531 -34.90625 17.015625 -33.796875 15.109375 -31.578125 C 13.203125 -29.359375 12.25 -25.691406 12.25 -20.578125 L 12.25 0 L 6.296875 0 L 6.296875 -39.234375 L 11.140625 -39.234375 L 12.09375 -33.859375 L 12.390625 -33.859375 C 13.609375 -35.796875 15.3125 -37.296875 17.5 -38.359375 C 19.695312 -39.421875 22.144531 -39.953125 24.84375 -39.953125 C 29.570312 -39.953125 33.128906 -38.8125 35.515625 -36.53125 C 37.898438 -34.25 39.09375 -30.601562 39.09375 -25.59375 L 39.09375 0 Z M 33.140625 0 "/></g></g></g><g fill="#bfbfbf" fill-opacity="1"><g transform="translate(541.506425, 499.319876)"><g><path d="M 33.140625 0 L 33.140625 -25.375 C 33.140625 -28.570312 32.410156 -30.957031 30.953125 -32.53125 C 29.503906 -34.113281 27.226562 -34.90625 24.125 -34.90625 C 20.019531 -34.90625 17.015625 -33.796875 15.109375 -31.578125 C 13.203125 -29.359375 12.25 -25.691406 12.25 -20.578125 L 12.25 0 L 6.296875 0 L 6.296875 -39.234375 L 11.140625 -39.234375 L 12.09375 -33.859375 L 12.390625 -33.859375 C 13.609375 -35.796875 15.3125 -37.296875 17.5 -38.359375 C 19.695312 -39.421875 22.144531 -39.953125 24.84375 -39.953125 C 29.570312 -39.953125 33.128906 -38.8125 35.515625 -36.53125 C 37.898438 -34.25 39.09375 -30.601562 39.09375 -25.59375 L 39.09375 0 Z M 33.140625 0 "/></g></g></g><g fill="#bfbfbf" fill-opacity="1"><g transform="translate(593.468687, 499.319876)"><g><path d="M 40.171875 -19.65625 C 40.171875 -13.257812 38.554688 -8.265625 35.328125 -4.671875 C 32.109375 -1.078125 27.660156 0.71875 21.984375 0.71875 C 18.472656 0.71875 15.359375 -0.101562 12.640625 -1.75 C 9.921875 -3.394531 7.816406 -5.753906 6.328125 -8.828125 C 4.847656 -11.910156 4.109375 -15.519531 4.109375 -19.65625 C 4.109375 -26.050781 5.707031 -31.03125 8.90625 -34.59375 C 12.101562 -38.164062 16.546875 -39.953125 22.234375 -39.953125 C 27.722656 -39.953125 32.082031 -38.125 35.3125 -34.46875 C 38.550781 -30.820312 40.171875 -25.882812 40.171875 -19.65625 Z M 10.28125 -19.65625 C 10.28125 -14.644531 11.28125 -10.828125 13.28125 -8.203125 C 15.28125 -5.578125 18.226562 -4.265625 22.125 -4.265625 C 26.007812 -4.265625 28.957031 -5.566406 30.96875 -8.171875 C 32.988281 -10.785156 34 -14.613281 34 -19.65625 C 34 -24.644531 32.988281 -28.429688 30.96875 -31.015625 C 28.957031 -33.609375 25.984375 -34.90625 22.046875 -34.90625 C 18.160156 -34.90625 15.226562 -33.625 13.25 -31.0625 C 11.269531 -28.507812 10.28125 -24.707031 10.28125 -19.65625 Z M 10.28125 -19.65625 "/></g></g></g><g fill="#bfbfbf" fill-opacity="1"><g transform="translate(644.715007, 499.319876)"><g><path d="M 14.890625 0 L 0 -39.234375 L 6.375 -39.234375 L 14.8125 -15.96875 C 16.726562 -10.519531 17.851562 -6.988281 18.1875 -5.375 L 18.46875 -5.375 C 18.726562 -6.632812 19.554688 -9.25 20.953125 -13.21875 C 22.347656 -17.195312 25.484375 -25.867188 30.359375 -39.234375 L 36.734375 -39.234375 L 21.84375 0 Z M 14.890625 0 "/></g></g></g><g fill="#bfbfbf" fill-opacity="1"><g transform="translate(688.408135, 499.319876)"><g><path d="M 30.421875 0 L 29.25 -5.578125 L 28.953125 -5.578125 C 27.003906 -3.117188 25.054688 -1.453125 23.109375 -0.578125 C 21.160156 0.285156 18.734375 0.71875 15.828125 0.71875 C 11.929688 0.71875 8.878906 -0.28125 6.671875 -2.28125 C 4.460938 -4.289062 3.359375 -7.144531 3.359375 -10.84375 C 3.359375 -18.769531 9.695312 -22.921875 22.375 -23.296875 L 29.03125 -23.515625 L 29.03125 -25.953125 C 29.03125 -29.035156 28.367188 -31.304688 27.046875 -32.765625 C 25.722656 -34.234375 23.601562 -34.96875 20.6875 -34.96875 C 17.414062 -34.96875 13.71875 -33.96875 9.59375 -31.96875 L 7.765625 -36.515625 C 9.703125 -37.566406 11.820312 -38.390625 14.125 -38.984375 C 16.425781 -39.578125 18.734375 -39.875 21.046875 -39.875 C 25.722656 -39.875 29.1875 -38.835938 31.4375 -36.765625 C 33.695312 -34.691406 34.828125 -31.363281 34.828125 -26.78125 L 34.828125 0 Z M 17 -4.1875 C 20.695312 -4.1875 23.601562 -5.203125 25.71875 -7.234375 C 27.832031 -9.265625 28.890625 -12.101562 28.890625 -15.75 L 28.890625 -19.296875 L 22.953125 -19.046875 C 18.222656 -18.878906 14.8125 -18.144531 12.71875 -16.84375 C 10.632812 -15.539062 9.59375 -13.519531 9.59375 -10.78125 C 9.59375 -8.625 10.242188 -6.984375 11.546875 -5.859375 C 12.847656 -4.742188 14.664062 -4.1875 17 -4.1875 Z M 17 -4.1875 "/></g></g></g><g fill="#bfbfbf" fill-opacity="1"><g transform="translate(736.146338, 499.319876)"><g><path d="M 18.96875 -4.1875 C 20.019531 -4.1875 21.035156 -4.265625 22.015625 -4.421875 C 22.992188 -4.578125 23.769531 -4.738281 24.34375 -4.90625 L 24.34375 -0.359375 C 23.695312 -0.046875 22.742188 0.207031 21.484375 0.40625 C 20.234375 0.613281 19.109375 0.71875 18.109375 0.71875 C 10.523438 0.71875 6.734375 -3.28125 6.734375 -11.28125 L 6.734375 -34.609375 L 1.109375 -34.609375 L 1.109375 -37.484375 L 6.734375 -39.953125 L 9.234375 -48.328125 L 12.671875 -48.328125 L 12.671875 -39.234375 L 24.0625 -39.234375 L 24.0625 -34.609375 L 12.671875 -34.609375 L 12.671875 -11.53125 C 12.671875 -9.164062 13.226562 -7.347656 14.34375 -6.078125 C 15.46875 -4.816406 17.007812 -4.1875 18.96875 -4.1875 Z M 18.96875 -4.1875 "/></g></g></g><g fill="#bfbfbf" fill-opacity="1"><g transform="translate(768.99294, 499.319876)"><g><path d="M 12.25 0 L 6.296875 0 L 6.296875 -39.234375 L 12.25 -39.234375 Z M 5.796875 -49.859375 C 5.796875 -51.222656 6.128906 -52.21875 6.796875 -52.84375 C 7.460938 -53.476562 8.300781 -53.796875 9.3125 -53.796875 C 10.257812 -53.796875 11.078125 -53.472656 11.765625 -52.828125 C 12.460938 -52.191406 12.8125 -51.203125 12.8125 -49.859375 C 12.8125 -48.523438 12.460938 -47.53125 11.765625 -46.875 C 11.078125 -46.21875 10.257812 -45.890625 9.3125 -45.890625 C 8.300781 -45.890625 7.460938 -46.21875 6.796875 -46.875 C 6.128906 -47.53125 5.796875 -48.523438 5.796875 -49.859375 Z M 5.796875 -49.859375 "/></g></g></g><g fill="#bfbfbf" fill-opacity="1"><g transform="translate(794.501132, 499.319876)"><g><path d="M 40.171875 -19.65625 C 40.171875 -13.257812 38.554688 -8.265625 35.328125 -4.671875 C 32.109375 -1.078125 27.660156 0.71875 21.984375 0.71875 C 18.472656 0.71875 15.359375 -0.101562 12.640625 -1.75 C 9.921875 -3.394531 7.816406 -5.753906 6.328125 -8.828125 C 4.847656 -11.910156 4.109375 -15.519531 4.109375 -19.65625 C 4.109375 -26.050781 5.707031 -31.03125 8.90625 -34.59375 C 12.101562 -38.164062 16.546875 -39.953125 22.234375 -39.953125 C 27.722656 -39.953125 32.082031 -38.125 35.3125 -34.46875 C 38.550781 -30.820312 40.171875 -25.882812 40.171875 -19.65625 Z M 10.28125 -19.65625 C 10.28125 -14.644531 11.28125 -10.828125 13.28125 -8.203125 C 15.28125 -5.578125 18.226562 -4.265625 22.125 -4.265625 C 26.007812 -4.265625 28.957031 -5.566406 30.96875 -8.171875 C 32.988281 -10.785156 34 -14.613281 34 -19.65625 C 34 -24.644531 32.988281 -28.429688 30.96875 -31.015625 C 28.957031 -33.609375 25.984375 -34.90625 22.046875 -34.90625 C 18.160156 -34.90625 15.226562 -33.625 13.25 -31.0625 C 11.269531 -28.507812 10.28125 -24.707031 10.28125 -19.65625 Z M 10.28125 -19.65625 "/></g></g></g><g fill="#bfbfbf" fill-opacity="1"><g transform="translate(845.747452, 499.319876)"><g><path d="M 33.140625 0 L 33.140625 -25.375 C 33.140625 -28.570312 32.410156 -30.957031 30.953125 -32.53125 C 29.503906 -34.113281 27.226562 -34.90625 24.125 -34.90625 C 20.019531 -34.90625 17.015625 -33.796875 15.109375 -31.578125 C 13.203125 -29.359375 12.25 -25.691406 12.25 -20.578125 L 12.25 0 L 6.296875 0 L 6.296875 -39.234375 L 11.140625 -39.234375 L 12.09375 -33.859375 L 12.390625 -33.859375 C 13.609375 -35.796875 15.3125 -37.296875 17.5 -38.359375 C 19.695312 -39.421875 22.144531 -39.953125 24.84375 -39.953125 C 29.570312 -39.953125 33.128906 -38.8125 35.515625 -36.53125 C 37.898438 -34.25 39.09375 -30.601562 39.09375 -25.59375 L 39.09375 0 Z M 33.140625 0 "/></g></g></g><g fill="#bfbfbf" fill-opacity="1"><g transform="translate(897.709715, 499.319876)"><g/></g></g><g fill="#bfbfbf" fill-opacity="1"><g transform="translate(923.719067, 499.319876)"><g><path d="M 46.9375 0 L 40.84375 0 L 40.84375 -24.625 L 13.28125 -24.625 L 13.28125 0 L 7.1875 0 L 7.1875 -52.328125 L 13.28125 -52.328125 L 13.28125 -30.0625 L 40.84375 -30.0625 L 40.84375 -52.328125 L 46.9375 -52.328125 Z M 46.9375 0 "/></g></g></g><g fill="#bfbfbf" fill-opacity="1"><g transform="translate(984.773797, 499.319876)"><g><path d="M 11.890625 -39.234375 L 11.890625 -13.78125 C 11.890625 -10.582031 12.613281 -8.195312 14.0625 -6.625 C 15.519531 -5.050781 17.800781 -4.265625 20.90625 -4.265625 C 25.007812 -4.265625 28.007812 -5.382812 29.90625 -7.625 C 31.800781 -9.863281 32.75 -13.523438 32.75 -18.609375 L 32.75 -39.234375 L 38.703125 -39.234375 L 38.703125 0 L 33.796875 0 L 32.9375 -5.265625 L 32.609375 -5.265625 C 31.390625 -3.328125 29.703125 -1.84375 27.546875 -0.8125 C 25.390625 0.207031 22.925781 0.71875 20.15625 0.71875 C 15.382812 0.71875 11.8125 -0.410156 9.4375 -2.671875 C 7.0625 -4.941406 5.875 -8.570312 5.875 -13.5625 L 5.875 -39.234375 Z M 11.890625 -39.234375 "/></g></g></g><g fill="#bfbfbf" fill-opacity="1"><g transform="translate(1036.73606, 499.319876)"><g><path d="M 24.5625 -39.875 C 29.707031 -39.875 33.707031 -38.113281 36.5625 -34.59375 C 39.414062 -31.070312 40.84375 -26.09375 40.84375 -19.65625 C 40.84375 -13.207031 39.40625 -8.195312 36.53125 -4.625 C 33.65625 -1.0625 29.664062 0.71875 24.5625 0.71875 C 22 0.71875 19.660156 0.246094 17.546875 -0.6875 C 15.441406 -1.632812 13.675781 -3.085938 12.25 -5.046875 L 11.8125 -5.046875 L 10.5625 0 L 6.296875 0 L 6.296875 -55.703125 L 12.25 -55.703125 L 12.25 -42.171875 C 12.25 -39.140625 12.148438 -36.414062 11.953125 -34 L 12.25 -34 C 15.007812 -37.914062 19.113281 -39.875 24.5625 -39.875 Z M 23.703125 -34.90625 C 19.640625 -34.90625 16.710938 -33.738281 14.921875 -31.40625 C 13.140625 -29.082031 12.25 -25.164062 12.25 -19.65625 C 12.25 -14.144531 13.164062 -10.203125 15 -7.828125 C 16.832031 -5.453125 19.78125 -4.265625 23.84375 -4.265625 C 27.488281 -4.265625 30.207031 -5.59375 32 -8.25 C 33.789062 -10.914062 34.6875 -14.738281 34.6875 -19.71875 C 34.6875 -24.832031 33.789062 -28.640625 32 -31.140625 C 30.207031 -33.648438 27.441406 -34.90625 23.703125 -34.90625 Z M 23.703125 -34.90625 "/></g></g></g><g transform="matrix(1, 0, 0, 1, 40, 225)"><g clip-path="url(#19fcaf58ac)"><g clip-path="url(#15d644d774)"><g clip-path="url(#0447041e17)"><g clip-path="url(#364b0ec92b)"><g transform="matrix(1, 0, 0, 1, 6, 166)"><g clip-path="url(#c387371302)"><g clip-path="url(#0fb0778d8e)"><g clip-path="url(#b73dd7458e)"><g clip-path="url(#d82c80b4de)"><path fill="#ffffff" d="M 15.324219 -5.25 L 36.800781 15.433594 L 16.113281 36.910156 L -5.359375 16.222656 Z M 15.324219 -5.25 " fill-opacity="1" fill-rule="nonzero"/></g></g></g></g></g></g></g></g><g clip-path="url(#aff1133a3c)"><g clip-path="url(#e7baf362cb)"><g clip-path="url(#3ce060b765)"><g transform="matrix(1, 0, 0, 1, 6, 6)"><g clip-path="url(#9d5311096f)"><g clip-path="url(#1e5a499c12)"><g clip-path="url(#d5fa7abf0e)"><g clip-path="url(#f80e61a55f)"><path fill="#ffffff" d="M 15.324219 -5.523438 L 36.800781 15.160156 L 16.113281 36.636719 L -5.359375 15.949219 Z M 15.324219 -5.523438 " fill-opacity="1" fill-rule="nonzero"/></g></g></g></g></g></g></g></g><g clip-path="url(#4bae727c18)"><g clip-path="url(#d1c6912b4c)"><g clip-path="url(#a9db917360)"><g transform="matrix(1, 0, 0, 1, 6, 86)"><g clip-path="url(#21d8ce5adc)"><g clip-path="url(#f5d6213c75)"><g clip-path="url(#32aaa4d9a7)"><g clip-path="url(#ad8984a049)"><path fill="#ffffff" d="M 15.324219 -5.386719 L 36.800781 15.296875 L 16.113281 36.773438 L -5.359375 16.085938 Z M 15.324219 -5.386719 " fill-opacity="1" fill-rule="nonzero"/></g></g></g></g></g></g></g></g><g clip-path="url(#faae64e972)"><g clip-path="url(#7e5940300f)"><g clip-path="url(#457975865b)"><g transform="matrix(1, 0, 0, 1, 6, 47)"><g clip-path="url(#8f31c8843d)"><g clip-path="url(#6132f4509c)"><g clip-path="url(#803f290cac)"><g clip-path="url(#2a48d57e4c)"><path fill="#ffffff" d="M 15.324219 -5.972656 L 36.800781 14.714844 L 16.113281 36.1875 L -5.359375 15.503906 Z M 15.324219 -5.972656 " fill-opacity="1" fill-rule="nonzero"/></g></g></g></g></g></g></g></g><g clip-path="url(#3da89f300b)"><g clip-path="url(#abf62c5b0c)"><g clip-path="url(#1c1c8cef38)"><g transform="matrix(1, 0, 0, 1, 6, 127)"><g clip-path="url(#2a92ed6c4c)"><g clip-path="url(#0cd7df8b26)"><g clip-path="url(#fdd3bdbd02)"><g clip-path="url(#9c41098acd)"><path fill="#ffffff" d="M 15.324219 -5.835938 L 36.800781 14.851562 L 16.113281 36.324219 L -5.359375 15.640625 Z M 15.324219 -5.835938 " fill-opacity="1" fill-rule="nonzero"/></g></g></g></g></g></g></g></g><g clip-path="url(#9f335bf451)"><g clip-path="url(#5c4ff8d585)"><g clip-path="url(#188bc4c91d)"><g transform="matrix(1, 0, 0, 1, 39, 151)"><g clip-path="url(#8e1cdbc1ef)"><g clip-path="url(#6f34d58dbf)"><g clip-path="url(#147d64eeb2)"><g clip-path="url(#57dd44e681)"><path fill="#ffffff" d="M 9.558594 -2.777344 L 22.320312 9.515625 L 10.027344 22.277344 L -2.734375 9.984375 Z M 9.558594 -2.777344 " fill-opacity="1" fill-rule="nonzero"/></g></g></g></g></g></g></g></g><g clip-path="url(#2522b5a0d1)"><g clip-path="url(#c04019d634)"><g clip-path="url(#877d671d25)"><g transform="matrix(1, 0, 0, 1, 64, 126)"><g clip-path="url(#b80bd7c8e0)"><g clip-path="url(#adcc8f574e)"><g clip-path="url(#3ca7ee0d4e)"><g clip-path="url(#a29708b31f)"><path fill="#ffffff" d="M 14.945312 -5.320312 L 36.421875 15.367188 L 15.734375 36.839844 L -5.738281 16.15625 Z M 14.945312 -5.320312 " fill-opacity="1" fill-rule="nonzero"/></g></g></g></g></g></g></g></g><g clip-path="url(#660f465b0f)"><g clip-path="url(#121b536ed4)"><g clip-path="url(#ec0282912c)"><g transform="matrix(1, 0, 0, 1, 64, 46)"><g clip-path="url(#5c0d7f7dad)"><g clip-path="url(#9e6f2b7adb)"><g clip-path="url(#cd84115a61)"><g clip-path="url(#ce9db9bc4a)"><path fill="#ffffff" d="M 14.945312 -5.457031 L 36.421875 15.230469 L 15.734375 36.703125 L -5.738281 16.019531 Z M 14.945312 -5.457031 " fill-opacity="1" fill-rule="nonzero"/></g></g></g></g></g></g></g></g><g clip-path="url(#24eda23032)"><g clip-path="url(#b37f2abc61)"><g clip-path="url(#40e15fe467)"><g transform="matrix(1, 0, 0, 1, 64, 87)"><g clip-path="url(#4408d78824)"><g clip-path="url(#366da50962)"><g clip-path="url(#6f55277159)"><g clip-path="url(#250104cf65)"><path fill="#ffffff" d="M 14.945312 -5.902344 L 36.421875 14.78125 L 15.734375 36.257812 L -5.738281 15.570312 Z M 14.945312 -5.902344 " fill-opacity="1" fill-rule="nonzero"/></g></g></g></g></g></g></g></g><g clip-path="url(#7217e033c2)"><g clip-path="url(#d270d08f8e)"><g clip-path="url(#6b00d10e61)"><g transform="matrix(1, 0, 0, 1, 122, 85)"><g clip-path="url(#2897e8fc8e)"><g clip-path="url(#4805897e53)"><g clip-path="url(#3fc1cf8f68)"><g clip-path="url(#6f47f027a0)"><path fill="#ffffff" d="M 15.167969 -5.992188 L 36.640625 14.691406 L 15.957031 36.164062 L -5.519531 15.480469 Z M 15.167969 -5.992188 " fill-opacity="1" fill-rule="nonzero"/></g></g></g></g></g></g></g></g><g clip-path="url(#7ab00e25ea)"><g clip-path="url(#a2b0415cfb)"><g clip-path="url(#1a0e513e4e)"><g transform="matrix(1, 0, 0, 1, 39, 113)"><g clip-path="url(#5804015630)"><g clip-path="url(#01dff11839)"><g clip-path="url(#f52ab7f299)"><g clip-path="url(#6c182402b2)"><path fill="#ffffff" d="M 9.558594 -2.753906 L 22.320312 9.535156 L 10.027344 22.296875 L -2.734375 10.007812 Z M 9.558594 -2.753906 " fill-opacity="1" fill-rule="nonzero"/></g></g></g></g></g></g></g></g><g clip-path="url(#09e50dd3a9)"><g clip-path="url(#5941ee166b)"><g clip-path="url(#3a8d55b3d2)"><g transform="matrix(1, 0, 0, 1, 40, 74)"><g clip-path="url(#9647c96065)"><g clip-path="url(#91c07d7101)"><g clip-path="url(#c822a47a14)"><g clip-path="url(#26ad76663b)"><path fill="#ffffff" d="M 9.175781 -3.339844 L 21.9375 8.953125 L 9.644531 21.714844 L -3.117188 9.421875 Z M 9.175781 -3.339844 " fill-opacity="1" fill-rule="nonzero"/></g></g></g></g></g></g></g></g><g clip-path="url(#c0d3bf64df)"><g clip-path="url(#4b398eac0e)"><g clip-path="url(#ba03cd3914)"><g transform="matrix(1, 0, 0, 1, 40, 34)"><g clip-path="url(#2b6f825e36)"><g clip-path="url(#d564580cde)"><g clip-path="url(#1c827c6c26)"><g clip-path="url(#5f7656faf4)"><path fill="#ffffff" d="M 9.175781 -2.847656 L 21.9375 9.445312 L 9.644531 22.207031 L -3.117188 9.914062 Z M 9.175781 -2.847656 " fill-opacity="1" fill-rule="nonzero"/></g></g></g></g></g></g></g></g><g clip-path="url(#5064cf0c5a)"><g clip-path="url(#1f1d9efe0b)"><g clip-path="url(#7f4aacd3c1)"><g transform="matrix(1, 0, 0, 1, 99, 112)"><g clip-path="url(#7d13c83813)"><g clip-path="url(#85aa0da65a)"><g clip-path="url(#e3e389b6c6)"><g clip-path="url(#530318b6e7)"><path fill="#ffffff" d="M 8.894531 -3.363281 L 21.65625 8.929688 L 9.363281 21.691406 L -3.398438 9.398438 Z M 8.894531 -3.363281 " fill-opacity="1" fill-rule="nonzero"/></g></g></g></g></g></g></g></g><g clip-path="url(#dd04867853)"><g clip-path="url(#4b3a089699)"><g clip-path="url(#f7fb939f82)"><g transform="matrix(1, 0, 0, 1, 99, 74)"><g clip-path="url(#bf2400ae0b)"><g clip-path="url(#e9392fa333)"><g clip-path="url(#c2d3367583)"><g clip-path="url(#6e81eab9fc)"><path fill="#ffffff" d="M 8.894531 -3.339844 L 21.65625 8.953125 L 9.363281 21.714844 L -3.398438 9.421875 Z M 8.894531 -3.339844 " fill-opacity="1" fill-rule="nonzero"/></g></g></g></g></g></g></g></g></g></g></svg>